STARTFONT 2.1
COMMENT
COMMENT Converted from OpenType font "Patriot-Medium.otf" by "otf2bdf 3.0".
COMMENT
FONT -FreeType-Patriot Medium-Medium-R-Normal--19-140-100-100-P-97-ISO10646-1
SIZE 14 100 100
FONTBOUNDINGBOX 33 26 -8 -5
STARTPROPERTIES 19
FOUNDRY "FreeType"
FAMILY_NAME "Patriot Medium"
WEIGHT_NAME "Medium"
SLANT "R"
SETWIDTH_NAME "Normal"
ADD_STYLE_NAME ""
PIXEL_SIZE 19
POINT_SIZE 140
RESOLUTION_X 100
RESOLUTION_Y 100
SPACING "P"
AVERAGE_WIDTH 97
CHARSET_REGISTRY "ISO10646"
CHARSET_ENCODING "1"
FONT_ASCENT 19
FONT_DESCENT 3
COPYRIGHT "Copyright © 2020 by Behalf Studio. All rights reserved."
_OTF_FONTFILE "Patriot-Medium.otf"
_OTF_PSNAME "Patriot-Medium"
ENDPROPERTIES
CHARS 426
STARTCHAR 0020
ENCODING 32
SWIDTH 360 0
DWIDTH 7 0
BBX 0 0 0 0
BITMAP
ENDCHAR
STARTCHAR 0021
ENCODING 33
SWIDTH 257 0
DWIDTH 5 0
BBX 3 14 1 0
BITMAP
E0
E0
E0
E0
E0
E0
E0
E0
E0
00
00
60
E0
E0
ENDCHAR
STARTCHAR 0022
ENCODING 34
SWIDTH 308 0
DWIDTH 6 0
BBX 5 5 1 9
BITMAP
D8
D8
D8
D8
D8
ENDCHAR
STARTCHAR 0023
ENCODING 35
SWIDTH 617 0
DWIDTH 12 0
BBX 10 14 1 0
BITMAP
1980
1980
1980
1980
7FC0
7FC0
3180
3300
3300
FFC0
3300
3300
6300
6300
ENDCHAR
STARTCHAR 0024
ENCODING 36
SWIDTH 514 0
DWIDTH 10 0
BBX 9 17 1 -2
BITMAP
0800
3C00
7F00
7700
6300
6000
7800
3C00
1E00
0700
0380
6380
E380
7F00
3E00
0800
0800
ENDCHAR
STARTCHAR 0025
ENCODING 37
SWIDTH 874 0
DWIDTH 17 0
BBX 16 14 1 0
BITMAP
380C
7C18
C630
C620
C660
7CC0
3980
0180
033E
0677
0663
0C63
1876
103E
ENDCHAR
STARTCHAR 0026
ENCODING 38
SWIDTH 668 0
DWIDTH 13 0
BBX 11 14 1 0
BITMAP
1E00
7F00
7380
6100
6000
7000
7FE0
7FE0
E1C0
E1C0
E1C0
E380
7F80
3F00
ENDCHAR
STARTCHAR 0027
ENCODING 39
SWIDTH 154 0
DWIDTH 3 0
BBX 2 5 1 9
BITMAP
C0
C0
C0
C0
C0
ENDCHAR
STARTCHAR 0028
ENCODING 40
SWIDTH 308 0
DWIDTH 6 0
BBX 5 19 1 -3
BITMAP
10
18
30
60
60
40
C0
C0
C0
C0
C0
C0
C0
40
60
60
30
38
10
ENDCHAR
STARTCHAR 0029
ENCODING 41
SWIDTH 308 0
DWIDTH 6 0
BBX 5 19 1 -3
BITMAP
40
C0
60
60
30
30
10
18
18
18
18
18
10
30
30
20
60
C0
40
ENDCHAR
STARTCHAR 002A
ENCODING 42
SWIDTH 411 0
DWIDTH 8 0
BBX 7 7 1 7
BITMAP
10
10
D6
FC
28
6C
40
ENDCHAR
STARTCHAR 002B
ENCODING 43
SWIDTH 565 0
DWIDTH 11 0
BBX 9 9 1 2
BITMAP
0C00
0C00
0C00
0C00
FF80
FF80
0C00
0C00
0C00
ENDCHAR
STARTCHAR 002C
ENCODING 44
SWIDTH 257 0
DWIDTH 5 0
BBX 3 3 1 -2
BITMAP
60
40
C0
ENDCHAR
STARTCHAR 002D
ENCODING 45
SWIDTH 411 0
DWIDTH 8 0
BBX 7 1 1 4
BITMAP
FE
ENDCHAR
STARTCHAR 002E
ENCODING 46
SWIDTH 257 0
DWIDTH 5 0
BBX 3 3 1 0
BITMAP
60
E0
E0
ENDCHAR
STARTCHAR 002F
ENCODING 47
SWIDTH 411 0
DWIDTH 8 0
BBX 6 14 1 0
BITMAP
0C
0C
18
18
18
18
30
30
30
60
60
60
60
C0
ENDCHAR
STARTCHAR 0030
ENCODING 48
SWIDTH 720 0
DWIDTH 14 0
BBX 12 14 1 0
BITMAP
0F00
3FC0
79E0
E070
E030
C030
C030
C030
C030
C030
E070
70E0
3FC0
1F80
ENDCHAR
STARTCHAR 0031
ENCODING 49
SWIDTH 308 0
DWIDTH 6 0
BBX 4 14 1 0
BITMAP
30
30
F0
F0
30
30
30
30
30
30
30
30
30
30
ENDCHAR
STARTCHAR 0032
ENCODING 50
SWIDTH 565 0
DWIDTH 11 0
BBX 9 14 1 0
BITMAP
3E00
7F00
F380
E380
C180
0380
0300
0700
0E00
1C00
3800
7000
FF80
FF80
ENDCHAR
STARTCHAR 0033
ENCODING 51
SWIDTH 514 0
DWIDTH 10 0
BBX 9 14 1 0
BITMAP
FF00
FF00
FE00
0C00
1800
7E00
7F00
0300
0380
0380
0380
C300
FF00
7E00
ENDCHAR
STARTCHAR 0034
ENCODING 52
SWIDTH 514 0
DWIDTH 10 0
BBX 10 14 0 0
BITMAP
0180
0F80
1F80
3980
7180
6180
6180
E180
FFC0
FFC0
0180
0180
0180
0180
ENDCHAR
STARTCHAR 0035
ENCODING 53
SWIDTH 514 0
DWIDTH 10 0
BBX 9 14 1 0
BITMAP
7F00
7F00
7F00
E000
C000
FE00
FF00
4380
0180
0180
0180
4380
FF00
7E00
ENDCHAR
STARTCHAR 0036
ENCODING 54
SWIDTH 617 0
DWIDTH 12 0
BBX 10 14 1 0
BITMAP
0600
0E00
1C00
1800
3E00
7F80
71C0
E0C0
C0C0
C0C0
E0C0
E1C0
7F80
3F00
ENDCHAR
STARTCHAR 0037
ENCODING 55
SWIDTH 462 0
DWIDTH 9 0
BBX 8 14 1 0
BITMAP
FF
FF
FF
07
06
0E
FF
FF
1C
18
38
30
30
70
ENDCHAR
STARTCHAR 0038
ENCODING 56
SWIDTH 565 0
DWIDTH 11 0
BBX 9 14 1 0
BITMAP
1C00
3F00
7300
6300
6300
3F00
7F00
E380
C180
C180
C180
E380
7F00
3E00
ENDCHAR
STARTCHAR 0039
ENCODING 57
SWIDTH 565 0
DWIDTH 11 0
BBX 10 14 1 0
BITMAP
1E00
7F80
F380
E1C0
C0C0
C0C0
C0C0
E1C0
7F80
3F80
0700
0E00
0C00
1C00
ENDCHAR
STARTCHAR 003A
ENCODING 58
SWIDTH 257 0
DWIDTH 5 0
BBX 3 10 1 0
BITMAP
40
E0
E0
00
00
00
00
60
E0
E0
ENDCHAR
STARTCHAR 003B
ENCODING 59
SWIDTH 257 0
DWIDTH 5 0
BBX 4 12 1 -2
BITMAP
60
70
70
00
00
00
00
00
00
60
40
C0
ENDCHAR
STARTCHAR 003C
ENCODING 60
SWIDTH 565 0
DWIDTH 11 0
BBX 9 8 1 2
BITMAP
0180
0F80
7C00
E000
F000
3E00
0780
0180
ENDCHAR
STARTCHAR 003D
ENCODING 61
SWIDTH 565 0
DWIDTH 11 0
BBX 9 6 1 3
BITMAP
FF80
FF80
0000
0000
FF80
FF80
ENDCHAR
STARTCHAR 003E
ENCODING 62
SWIDTH 565 0
DWIDTH 11 0
BBX 9 8 1 2
BITMAP
C000
F800
1F00
0380
0780
1E00
F800
C000
ENDCHAR
STARTCHAR 003F
ENCODING 63
SWIDTH 411 0
DWIDTH 8 0
BBX 7 14 1 0
BITMAP
38
7C
CE
0E
0C
1C
18
30
30
30
00
30
38
38
ENDCHAR
STARTCHAR 0040
ENCODING 64
SWIDTH 771 0
DWIDTH 15 0
BBX 14 14 1 0
BITMAP
07C0
1C70
3018
6008
47CC
CECC
CCCC
CCCC
CFD8
C770
6000
6010
3830
0FE0
ENDCHAR
STARTCHAR 0041
ENCODING 65
SWIDTH 565 0
DWIDTH 11 0
BBX 10 14 1 0
BITMAP
3C00
7E00
F700
E300
C300
C380
C380
C380
C380
C380
C380
C380
FFC0
FFC0
ENDCHAR
STARTCHAR 0042
ENCODING 66
SWIDTH 617 0
DWIDTH 12 0
BBX 11 14 1 0
BITMAP
7E00
7F80
7FC0
60C0
60C0
61C0
FFC0
FFC0
61C0
60E0
60E0
61C0
7FC0
7F80
ENDCHAR
STARTCHAR 0043
ENCODING 67
SWIDTH 668 0
DWIDTH 13 0
BBX 12 14 1 0
BITMAP
0F80
1FE0
7CF0
7020
E000
C000
C000
C000
C000
E000
E020
7870
3FF0
0FC0
ENDCHAR
STARTCHAR 0044
ENCODING 68
SWIDTH 668 0
DWIDTH 13 0
BBX 11 14 1 0
BITMAP
FC00
FF00
FFC0
E1C0
E0E0
E060
E060
E060
E060
E0E0
E0E0
E3C0
FF80
FE00
ENDCHAR
STARTCHAR 0045
ENCODING 69
SWIDTH 462 0
DWIDTH 9 0
BBX 10 14 0 0
BITMAP
3E00
3E00
3E00
3000
3000
3000
FF00
FF00
3000
3000
3000
3000
3FC0
3FC0
ENDCHAR
STARTCHAR 0046
ENCODING 70
SWIDTH 462 0
DWIDTH 9 0
BBX 9 14 0 0
BITMAP
3F80
3F80
3F80
3000
3000
3000
FF80
FF80
FF80
3000
3000
3000
3000
3000
ENDCHAR
STARTCHAR 0047
ENCODING 71
SWIDTH 822 0
DWIDTH 16 0
BBX 15 14 1 0
BITMAP
0780
1FE0
7CF0
7020
E000
C000
C1FE
C1FE
C01C
E01C
E038
7878
3FF0
0FC0
ENDCHAR
STARTCHAR 0048
ENCODING 72
SWIDTH 565 0
DWIDTH 11 0
BBX 10 14 0 0
BITMAP
30C0
30C0
30C0
30C0
30C0
30C0
FFC0
FFC0
30C0
30C0
30C0
30C0
30C0
30C0
ENDCHAR
STARTCHAR 0049
ENCODING 73
SWIDTH 205 0
DWIDTH 4 0
BBX 6 15 -1 1
BITMAP
10
FC
38
38
40
00
00
30
30
30
30
30
30
30
30
ENDCHAR
STARTCHAR 004A
ENCODING 74
SWIDTH 462 0
DWIDTH 9 0
BBX 7 14 1 0
BITMAP
1E
1E
1E
06
06
06
06
06
06
06
06
CE
FE
7C
ENDCHAR
STARTCHAR 004B
ENCODING 75
SWIDTH 514 0
DWIDTH 10 0
BBX 10 14 0 0
BITMAP
3180
3180
3180
3180
3180
3380
FF00
FF80
31C0
31C0
30C0
30C0
30C0
30C0
ENDCHAR
STARTCHAR 004C
ENCODING 76
SWIDTH 411 0
DWIDTH 8 0
BBX 7 14 1 0
BITMAP
E0
E0
E0
E0
E0
E0
E0
E0
E0
E0
E0
E0
FE
FE
ENDCHAR
STARTCHAR 004D
ENCODING 77
SWIDTH 874 0
DWIDTH 17 0
BBX 15 14 1 0
BITMAP
8106
E186
F1C6
79E6
7FFE
6FBE
678E
6186
6186
6186
6186
6186
6186
6186
ENDCHAR
STARTCHAR 004E
ENCODING 78
SWIDTH 514 0
DWIDTH 10 0
BBX 9 14 1 0
BITMAP
8380
E380
F380
FB80
FF80
EF80
E780
E380
E380
E380
E380
E380
E380
E380
ENDCHAR
STARTCHAR 004F
ENCODING 79
SWIDTH 771 0
DWIDTH 15 0
BBX 14 14 1 0
BITMAP
0780
1FE0
7CF8
7038
E01C
C00C
C00C
C00C
C00C
E01C
E01C
7878
3FF0
0FC0
ENDCHAR
STARTCHAR 0050
ENCODING 80
SWIDTH 565 0
DWIDTH 11 0
BBX 11 14 0 0
BITMAP
3E00
3F80
3FC0
30E0
30E0
30E0
31C0
FFC0
FF00
3000
3000
3000
3000
3000
ENDCHAR
STARTCHAR 0051
ENCODING 81
SWIDTH 771 0
DWIDTH 15 0
BBX 14 14 1 -1
BITMAP
0780
1FE0
7CF8
7038
E01C
C00C
C00C
C00C
C00C
E01C
E07C
7878
3FF8
0FD8
ENDCHAR
STARTCHAR 0052
ENCODING 82
SWIDTH 565 0
DWIDTH 11 0
BBX 11 14 0 0
BITMAP
3F00
3FC0
3FE0
30E0
3060
3060
31E0
FFC0
FFC0
30C0
30C0
30E0
30E0
30E0
ENDCHAR
STARTCHAR 0053
ENCODING 83
SWIDTH 462 0
DWIDTH 9 0
BBX 8 14 1 0
BITMAP
3C
7E
E7
E3
E0
70
3C
1E
0F
03
C3
E7
FF
7E
ENDCHAR
STARTCHAR 0054
ENCODING 84
SWIDTH 514 0
DWIDTH 10 0
BBX 10 14 0 0
BITMAP
FFC0
FFC0
FFC0
0C00
0C00
0C00
0C00
0C00
0C00
0C00
0C00
0C00
0C00
0C00
ENDCHAR
STARTCHAR 0055
ENCODING 85
SWIDTH 514 0
DWIDTH 10 0
BBX 8 14 1 0
BITMAP
C3
C3
C3
C3
C3
C3
C3
C3
C3
C3
C3
E7
7F
3E
ENDCHAR
STARTCHAR 0056
ENCODING 86
SWIDTH 462 0
DWIDTH 9 0
BBX 9 14 0 0
BITMAP
E380
E380
E380
E380
E380
E380
E380
E300
E300
6300
6700
7600
3E00
1C00
ENDCHAR
STARTCHAR 0057
ENCODING 87
SWIDTH 771 0
DWIDTH 15 0
BBX 14 14 0 0
BITMAP
E38C
E38C
E38C
E38C
E38C
E38C
E38C
E38C
E38C
638C
679C
77D8
3EF8
1CF0
ENDCHAR
STARTCHAR 0058
ENCODING 88
SWIDTH 514 0
DWIDTH 10 0
BBX 9 14 1 0
BITMAP
C380
C380
C380
C300
E300
7F00
7E00
FF00
E300
C300
C380
C380
C380
C380
ENDCHAR
STARTCHAR 0059
ENCODING 89
SWIDTH 514 0
DWIDTH 10 0
BBX 8 14 1 0
BITMAP
C3
C3
C3
C3
C3
C3
C3
C3
E7
7E
3C
18
18
18
ENDCHAR
STARTCHAR 005A
ENCODING 90
SWIDTH 514 0
DWIDTH 10 0
BBX 10 14 0 0
BITMAP
7FC0
7FC0
7F80
0380
0700
0600
0E00
0C00
1C00
3800
3000
7000
7F80
FF80
ENDCHAR
STARTCHAR 005B
ENCODING 91
SWIDTH 257 0
DWIDTH 5 0
BBX 3 19 1 -3
BITMAP
E0
C0
C0
C0
C0
C0
C0
C0
C0
C0
C0
C0
C0
C0
C0
C0
C0
E0
E0
ENDCHAR
STARTCHAR 005C
ENCODING 92
SWIDTH 411 0
DWIDTH 8 0
BBX 6 14 1 0
BITMAP
C0
C0
60
60
60
30
30
30
30
18
18
18
0C
0C
ENDCHAR
STARTCHAR 005D
ENCODING 93
SWIDTH 257 0
DWIDTH 5 0
BBX 3 19 1 -3
BITMAP
E0
60
60
60
60
60
60
60
60
60
60
60
60
60
60
60
60
E0
E0
ENDCHAR
STARTCHAR 005E
ENCODING 94
SWIDTH 514 0
DWIDTH 10 0
BBX 6 5 2 7
BITMAP
30
78
58
CC
84
ENDCHAR
STARTCHAR 005F
ENCODING 95
SWIDTH 514 0
DWIDTH 10 0
BBX 8 1 1 -2
BITMAP
FF
ENDCHAR
STARTCHAR 0060
ENCODING 96
SWIDTH 154 0
DWIDTH 3 0
BBX 3 2 0 15
BITMAP
C0
60
ENDCHAR
STARTCHAR 0061
ENCODING 97
SWIDTH 565 0
DWIDTH 11 0
BBX 10 14 1 0
BITMAP
3C00
7E00
F700
E300
C300
C380
C380
C380
C380
C380
C380
C380
FFC0
FFC0
ENDCHAR
STARTCHAR 0062
ENCODING 98
SWIDTH 617 0
DWIDTH 12 0
BBX 11 14 1 0
BITMAP
7E00
7F80
7FC0
60C0
60C0
61C0
FFC0
FFC0
61C0
60E0
60E0
61C0
7FC0
7F80
ENDCHAR
STARTCHAR 0063
ENCODING 99
SWIDTH 668 0
DWIDTH 13 0
BBX 12 14 1 0
BITMAP
0F80
1FE0
7CF0
7020
E000
C000
C000
C000
C000
E000
E020
7870
3FF0
0FC0
ENDCHAR
STARTCHAR 0064
ENCODING 100
SWIDTH 668 0
DWIDTH 13 0
BBX 11 14 1 0
BITMAP
FC00
FF00
FFC0
E1C0
E0E0
E060
E060
E060
E060
E0E0
E0E0
E3C0
FF80
FE00
ENDCHAR
STARTCHAR 0065
ENCODING 101
SWIDTH 462 0
DWIDTH 9 0
BBX 10 14 0 0
BITMAP
3E00
3E00
3E00
3000
3000
3000
FF00
FF00
3000
3000
3000
3000
3FC0
3FC0
ENDCHAR
STARTCHAR 0066
ENCODING 102
SWIDTH 462 0
DWIDTH 9 0
BBX 9 14 0 0
BITMAP
3F80
3F80
3F80
3000
3000
3000
FF80
FF80
FF80
3000
3000
3000
3000
3000
ENDCHAR
STARTCHAR 0067
ENCODING 103
SWIDTH 822 0
DWIDTH 16 0
BBX 15 14 1 0
BITMAP
0780
1FE0
7CF0
7020
E000
C000
C1FE
C1FE
C01C
E01C
E038
7878
3FF0
0FC0
ENDCHAR
STARTCHAR 0068
ENCODING 104
SWIDTH 565 0
DWIDTH 11 0
BBX 10 14 0 0
BITMAP
30C0
30C0
30C0
30C0
30C0
30C0
FFC0
FFC0
30C0
30C0
30C0
30C0
30C0
30C0
ENDCHAR
STARTCHAR 0069
ENCODING 105
SWIDTH 205 0
DWIDTH 4 0
BBX 6 15 -1 1
BITMAP
10
FC
38
38
40
00
00
30
30
30
30
30
30
30
30
ENDCHAR
STARTCHAR 006A
ENCODING 106
SWIDTH 462 0
DWIDTH 9 0
BBX 7 14 1 0
BITMAP
1E
1E
1E
06
06
06
06
06
06
06
06
CE
FE
7C
ENDCHAR
STARTCHAR 006B
ENCODING 107
SWIDTH 514 0
DWIDTH 10 0
BBX 10 14 0 0
BITMAP
3180
3180
3180
3180
3180
3380
FF00
FF80
31C0
31C0
30C0
30C0
30C0
30C0
ENDCHAR
STARTCHAR 006C
ENCODING 108
SWIDTH 411 0
DWIDTH 8 0
BBX 7 14 1 0
BITMAP
E0
E0
E0
E0
E0
E0
E0
E0
E0
E0
E0
E0
FE
FE
ENDCHAR
STARTCHAR 006D
ENCODING 109
SWIDTH 874 0
DWIDTH 17 0
BBX 15 14 1 0
BITMAP
8106
E186
F1C6
79E6
7FFE
6FBE
678E
6186
6186
6186
6186
6186
6186
6186
ENDCHAR
STARTCHAR 006E
ENCODING 110
SWIDTH 514 0
DWIDTH 10 0
BBX 9 14 1 0
BITMAP
8380
E380
F380
FB80
FF80
EF80
E780
E380
E380
E380
E380
E380
E380
E380
ENDCHAR
STARTCHAR 006F
ENCODING 111
SWIDTH 771 0
DWIDTH 15 0
BBX 14 14 1 0
BITMAP
0780
1FE0
7CF8
7038
E01C
C00C
C00C
C00C
C00C
E01C
E01C
7878
3FF0
0FC0
ENDCHAR
STARTCHAR 0070
ENCODING 112
SWIDTH 565 0
DWIDTH 11 0
BBX 11 14 0 0
BITMAP
3E00
3F80
3FC0
30E0
30E0
30E0
31C0
FFC0
FF00
3000
3000
3000
3000
3000
ENDCHAR
STARTCHAR 0071
ENCODING 113
SWIDTH 771 0
DWIDTH 15 0
BBX 14 14 1 -1
BITMAP
0780
1FE0
7CF8
7038
E01C
C00C
C00C
C00C
C00C
E01C
E07C
7878
3FF8
0FD8
ENDCHAR
STARTCHAR 0072
ENCODING 114
SWIDTH 565 0
DWIDTH 11 0
BBX 11 14 0 0
BITMAP
3F00
3FC0
3FE0
30E0
3060
3060
31E0
FFC0
FFC0
30C0
30C0
30E0
30E0
30E0
ENDCHAR
STARTCHAR 0073
ENCODING 115
SWIDTH 462 0
DWIDTH 9 0
BBX 8 14 1 0
BITMAP
3C
7E
E7
E3
E0
70
3C
1E
0F
03
C3
E7
FF
7E
ENDCHAR
STARTCHAR 0074
ENCODING 116
SWIDTH 514 0
DWIDTH 10 0
BBX 10 14 0 0
BITMAP
FFC0
FFC0
FFC0
0C00
0C00
0C00
0C00
0C00
0C00
0C00
0C00
0C00
0C00
0C00
ENDCHAR
STARTCHAR 0075
ENCODING 117
SWIDTH 514 0
DWIDTH 10 0
BBX 8 14 1 0
BITMAP
C3
C3
C3
C3
C3
C3
C3
C3
C3
C3
C3
E7
7F
3E
ENDCHAR
STARTCHAR 0076
ENCODING 118
SWIDTH 462 0
DWIDTH 9 0
BBX 9 14 0 0
BITMAP
E380
E380
E380
E380
E380
E380
E380
E300
E300
6300
6700
7600
3E00
1C00
ENDCHAR
STARTCHAR 0077
ENCODING 119
SWIDTH 771 0
DWIDTH 15 0
BBX 14 14 0 0
BITMAP
E38C
E38C
E38C
E38C
E38C
E38C
E38C
E38C
E38C
638C
679C
77D8
3EF8
1CF0
ENDCHAR
STARTCHAR 0078
ENCODING 120
SWIDTH 514 0
DWIDTH 10 0
BBX 9 14 1 0
BITMAP
C380
C380
C380
C300
E300
7F00
7E00
FF00
E300
C300
C380
C380
C380
C380
ENDCHAR
STARTCHAR 0079
ENCODING 121
SWIDTH 514 0
DWIDTH 10 0
BBX 8 14 1 0
BITMAP
C3
C3
C3
C3
C3
C3
C3
C3
E7
7E
3C
18
18
18
ENDCHAR
STARTCHAR 007A
ENCODING 122
SWIDTH 514 0
DWIDTH 10 0
BBX 10 14 0 0
BITMAP
7FC0
7FC0
7F80
0380
0700
0600
0E00
0C00
1C00
3800
3000
7000
7F80
FF80
ENDCHAR
STARTCHAR 007B
ENCODING 123
SWIDTH 308 0
DWIDTH 6 0
BBX 5 19 1 -3
BITMAP
38
38
60
60
60
60
60
60
E0
C0
60
60
60
60
60
60
60
38
38
ENDCHAR
STARTCHAR 007C
ENCODING 124
SWIDTH 154 0
DWIDTH 3 0
BBX 1 16 1 -2
BITMAP
80
80
80
80
80
80
80
80
80
80
80
80
80
80
80
80
ENDCHAR
STARTCHAR 007D
ENCODING 125
SWIDTH 308 0
DWIDTH 6 0
BBX 5 19 1 -3
BITMAP
E0
E0
20
20
20
20
20
20
38
18
30
20
20
20
20
20
20
E0
C0
ENDCHAR
STARTCHAR 007E
ENCODING 126
SWIDTH 514 0
DWIDTH 10 0
BBX 9 3 1 5
BITMAP
6000
FF80
0F80
ENDCHAR
STARTCHAR 00A1
ENCODING 161
SWIDTH 257 0
DWIDTH 5 0
BBX 3 14 1 -2
BITMAP
40
E0
E0
00
00
E0
E0
E0
E0
E0
E0
E0
E0
E0
ENDCHAR
STARTCHAR 00A2
ENCODING 162
SWIDTH 514 0
DWIDTH 10 0
BBX 8 12 1 1
BITMAP
08
08
3F
73
E0
C0
C0
C0
62
7F
1E
08
ENDCHAR
STARTCHAR 00A3
ENCODING 163
SWIDTH 514 0
DWIDTH 10 0
BBX 9 14 1 0
BITMAP
0F80
3F80
3D80
7000
7000
7000
FF00
FF00
3800
1800
3800
7800
FF80
FF80
ENDCHAR
STARTCHAR 00A4
ENCODING 164
SWIDTH 565 0
DWIDTH 11 0
BBX 9 9 1 1
BITMAP
4080
FF80
7300
6180
4180
4180
6180
7F80
DF80
ENDCHAR
STARTCHAR 00A5
ENCODING 165
SWIDTH 617 0
DWIDTH 12 0
BBX 11 14 1 0
BITMAP
E0E0
60C0
71C0
3180
3B80
1B00
1F00
7F80
7F80
0E00
7F80
7F80
0E00
0E00
ENDCHAR
STARTCHAR 00A6
ENCODING 166
SWIDTH 154 0
DWIDTH 3 0
BBX 1 16 1 -2
BITMAP
80
80
80
80
80
80
00
00
00
00
80
80
80
80
80
80
ENDCHAR
STARTCHAR 00A7
ENCODING 167
SWIDTH 462 0
DWIDTH 9 0
BBX 7 16 1 -2
BITMAP
3C
7E
66
64
70
3C
7E
C6
C6
7E
3C
1C
06
E6
7E
7C
ENDCHAR
STARTCHAR 00A8
ENCODING 168
SWIDTH 360 0
DWIDTH 7 0
BBX 8 3 0 14
BITMAP
42
E7
E7
ENDCHAR
STARTCHAR 00A9
ENCODING 169
SWIDTH 822 0
DWIDTH 16 0
BBX 15 14 1 0
BITMAP
07C0
1870
2018
610C
47C4
CC04
8804
8806
8C04
CFC4
478C
6008
3030
0FE0
ENDCHAR
STARTCHAR 00AB
ENCODING 171
SWIDTH 565 0
DWIDTH 11 0
BBX 9 8 1 2
BITMAP
1980
3300
7700
6600
E600
6700
3300
1980
ENDCHAR
STARTCHAR 00AC
ENCODING 172
SWIDTH 565 0
DWIDTH 11 0
BBX 9 5 1 2
BITMAP
FF80
FF80
0180
0180
0180
ENDCHAR
STARTCHAR 00AE
ENCODING 174
SWIDTH 462 0
DWIDTH 9 0
BBX 8 8 1 6
BITMAP
3C
42
9D
B9
99
91
66
18
ENDCHAR
STARTCHAR 00AF
ENCODING 175
SWIDTH 257 0
DWIDTH 5 0
BBX 6 2 0 15
BITMAP
FC
FC
ENDCHAR
STARTCHAR 00B0
ENCODING 176
SWIDTH 308 0
DWIDTH 6 0
BBX 5 5 1 9
BITMAP
70
98
88
D0
60
ENDCHAR
STARTCHAR 00B1
ENCODING 177
SWIDTH 565 0
DWIDTH 11 0
BBX 9 8 1 2
BITMAP
0C00
0C00
FF80
FF80
0C00
0C00
0000
FF80
ENDCHAR
STARTCHAR 00B4
ENCODING 180
SWIDTH 154 0
DWIDTH 3 0
BBX 3 2 0 15
BITMAP
60
C0
ENDCHAR
STARTCHAR 00B6
ENCODING 182
SWIDTH 462 0
DWIDTH 9 0
BBX 8 16 1 -2
BITMAP
19
79
F9
F9
F9
F9
79
39
09
09
09
09
09
09
09
09
ENDCHAR
STARTCHAR 00B7
ENCODING 183
SWIDTH 257 0
DWIDTH 5 0
BBX 3 3 1 4
BITMAP
40
E0
E0
ENDCHAR
STARTCHAR 00B8
ENCODING 184
SWIDTH 205 0
DWIDTH 4 0
BBX 4 4 0 -4
BITMAP
20
10
10
F0
ENDCHAR
STARTCHAR 00BB
ENCODING 187
SWIDTH 565 0
DWIDTH 11 0
BBX 8 8 2 2
BITMAP
CC
EE
66
33
33
67
66
CC
ENDCHAR
STARTCHAR 00BF
ENCODING 191
SWIDTH 411 0
DWIDTH 8 0
BBX 6 14 1 -2
BITMAP
18
38
38
00
00
18
38
30
70
60
C0
C4
FC
78
ENDCHAR
STARTCHAR 00C0
ENCODING 192
SWIDTH 565 0
DWIDTH 11 0
BBX 10 17 1 0
BITMAP
1000
1800
0000
3C00
7E00
F700
E300
C300
C380
C380
C380
C380
C380
C380
C380
FFC0
FFC0
ENDCHAR
STARTCHAR 00C1
ENCODING 193
SWIDTH 565 0
DWIDTH 11 0
BBX 10 17 1 0
BITMAP
0C00
0800
0000
3C00
7E00
F700
E300
C300
C380
C380
C380
C380
C380
C380
C380
FFC0
FFC0
ENDCHAR
STARTCHAR 00C2
ENCODING 194
SWIDTH 565 0
DWIDTH 11 0
BBX 10 17 1 0
BITMAP
3C00
3600
0000
3C00
7E00
F700
E300
C300
C380
C380
C380
C380
C380
C380
C380
FFC0
FFC0
ENDCHAR
STARTCHAR 00C3
ENCODING 195
SWIDTH 565 0
DWIDTH 11 0
BBX 10 17 1 0
BITMAP
3C00
0C00
0000
3C00
7E00
F700
E300
C300
C380
C380
C380
C380
C380
C380
C380
FFC0
FFC0
ENDCHAR
STARTCHAR 00C4
ENCODING 196
SWIDTH 565 0
DWIDTH 11 0
BBX 10 18 1 0
BITMAP
6200
7700
7700
0000
3C00
7E00
F700
E300
C300
C380
C380
C380
C380
C380
C380
C380
FFC0
FFC0
ENDCHAR
STARTCHAR 00C5
ENCODING 197
SWIDTH 565 0
DWIDTH 11 0
BBX 10 19 1 0
BITMAP
1800
3400
2400
1C00
0000
3C00
7E00
F700
E300
C300
C380
C380
C380
C380
C380
C380
C380
FFC0
FFC0
ENDCHAR
STARTCHAR 00C7
ENCODING 199
SWIDTH 668 0
DWIDTH 13 0
BBX 12 18 1 -4
BITMAP
0F80
1FE0
7CF0
7020
E000
C000
C000
C000
C000
E000
E020
7870
3FF0
0FC0
0200
0300
0900
0F00
ENDCHAR
STARTCHAR 00C8
ENCODING 200
SWIDTH 462 0
DWIDTH 9 0
BBX 10 17 0 0
BITMAP
1800
0800
0000
3E00
3E00
3E00
3000
3000
3000
FF00
FF00
3000
3000
3000
3000
3FC0
3FC0
ENDCHAR
STARTCHAR 00C9
ENCODING 201
SWIDTH 462 0
DWIDTH 9 0
BBX 10 17 0 0
BITMAP
0400
0C00
0000
3E00
3E00
3E00
3000
3000
3000
FF00
FF00
3000
3000
3000
3000
3FC0
3FC0
ENDCHAR
STARTCHAR 00CA
ENCODING 202
SWIDTH 462 0
DWIDTH 9 0
BBX 10 17 0 0
BITMAP
1C00
3600
0000
3E00
3E00
3E00
3000
3000
3000
FF00
FF00
3000
3000
3000
3000
3FC0
3FC0
ENDCHAR
STARTCHAR 00CB
ENCODING 203
SWIDTH 462 0
DWIDTH 9 0
BBX 10 18 0 0
BITMAP
2300
7780
7300
0000
3E00
3E00
3E00
3000
3000
3000
FF00
FF00
3000
3000
3000
3000
3FC0
3FC0
ENDCHAR
STARTCHAR 00CC
ENCODING 204
SWIDTH 205 0
DWIDTH 4 0
BBX 4 12 0 0
BITMAP
C0
60
20
00
70
70
70
70
70
70
70
70
ENDCHAR
STARTCHAR 00CD
ENCODING 205
SWIDTH 205 0
DWIDTH 4 0
BBX 3 12 1 0
BITMAP
60
40
C0
00
E0
E0
E0
E0
E0
E0
E0
E0
ENDCHAR
STARTCHAR 00CE
ENCODING 206
SWIDTH 205 0
DWIDTH 4 0
BBX 6 12 -1 0
BITMAP
38
6C
CC
00
38
38
38
38
38
38
38
38
ENDCHAR
STARTCHAR 00CF
ENCODING 207
SWIDTH 205 0
DWIDTH 4 0
BBX 7 12 -1 0
BITMAP
EE
EE
C6
00
38
38
38
38
38
38
38
38
ENDCHAR
STARTCHAR 00D1
ENCODING 209
SWIDTH 514 0
DWIDTH 10 0
BBX 9 17 1 0
BITMAP
3C00
0C00
0000
8380
E380
F380
FB80
FF80
EF80
E780
E380
E380
E380
E380
E380
E380
E380
ENDCHAR
STARTCHAR 00D2
ENCODING 210
SWIDTH 771 0
DWIDTH 15 0
BBX 14 17 1 0
BITMAP
0600
0300
0000
0780
1FE0
7CF8
7038
E01C
C00C
C00C
C00C
C00C
E01C
E01C
7878
3FF0
0FC0
ENDCHAR
STARTCHAR 00D3
ENCODING 211
SWIDTH 771 0
DWIDTH 15 0
BBX 14 17 1 0
BITMAP
0180
0300
0000
0780
1FE0
7CF8
7038
E01C
C00C
C00C
C00C
C00C
E01C
E01C
7878
3FF0
0FC0
ENDCHAR
STARTCHAR 00D4
ENCODING 212
SWIDTH 771 0
DWIDTH 15 0
BBX 14 17 1 0
BITMAP
0780
0CC0
0000
0780
1FE0
7CF8
7038
E01C
C00C
C00C
C00C
C00C
E01C
E01C
7878
3FF0
0FC0
ENDCHAR
STARTCHAR 00D5
ENCODING 213
SWIDTH 771 0
DWIDTH 15 0
BBX 14 17 1 0
BITMAP
0F80
0180
0000
0780
1FE0
7CF8
7038
E01C
C00C
C00C
C00C
C00C
E01C
E01C
7878
3FF0
0FC0
ENDCHAR
STARTCHAR 00D6
ENCODING 214
SWIDTH 771 0
DWIDTH 15 0
BBX 14 18 1 0
BITMAP
0840
1CE0
1CE0
0000
0780
1FE0
7CF8
7038
E01C
C00C
C00C
C00C
C00C
E01C
E01C
7878
3FF0
0FC0
ENDCHAR
STARTCHAR 00D7
ENCODING 215
SWIDTH 514 0
DWIDTH 10 0
BBX 8 9 1 2
BITMAP
40
E3
77
3E
1C
3E
77
E3
40
ENDCHAR
STARTCHAR 00D8
ENCODING 216
SWIDTH 771 0
DWIDTH 15 0
BBX 15 15 0 -1
BITMAP
07CC
1FFC
3E78
383C
706E
60CE
6186
E386
6306
660E
7C1C
3C3C
3FF8
6FE0
2000
ENDCHAR
STARTCHAR 00D9
ENCODING 217
SWIDTH 514 0
DWIDTH 10 0
BBX 8 17 1 0
BITMAP
30
18
00
C3
C3
C3
C3
C3
C3
C3
C3
C3
C3
C3
E7
7F
3E
ENDCHAR
STARTCHAR 00DA
ENCODING 218
SWIDTH 514 0
DWIDTH 10 0
BBX 8 17 1 0
BITMAP
0C
08
00
C3
C3
C3
C3
C3
C3
C3
C3
C3
C3
C3
E7
7F
3E
ENDCHAR
STARTCHAR 00DB
ENCODING 219
SWIDTH 514 0
DWIDTH 10 0
BBX 8 17 1 0
BITMAP
3C
36
40
C3
C3
C3
C3
C3
C3
C3
C3
C3
C3
C3
E7
7F
3E
ENDCHAR
STARTCHAR 00DC
ENCODING 220
SWIDTH 514 0
DWIDTH 10 0
BBX 8 18 1 0
BITMAP
62
E7
67
00
C3
C3
C3
C3
C3
C3
C3
C3
C3
C3
C3
E7
7F
3E
ENDCHAR
STARTCHAR 00DD
ENCODING 221
SWIDTH 514 0
DWIDTH 10 0
BBX 8 17 1 0
BITMAP
0C
18
00
C3
C3
C3
C3
C3
C3
C3
C3
E7
7E
3C
18
18
18
ENDCHAR
STARTCHAR 00E0
ENCODING 224
SWIDTH 565 0
DWIDTH 11 0
BBX 10 17 1 0
BITMAP
1000
1800
0000
3C00
7E00
F700
E300
C300
C380
C380
C380
C380
C380
C380
C380
FFC0
FFC0
ENDCHAR
STARTCHAR 00E1
ENCODING 225
SWIDTH 565 0
DWIDTH 11 0
BBX 10 17 1 0
BITMAP
0C00
0800
0000
3C00
7E00
F700
E300
C300
C380
C380
C380
C380
C380
C380
C380
FFC0
FFC0
ENDCHAR
STARTCHAR 00E2
ENCODING 226
SWIDTH 565 0
DWIDTH 11 0
BBX 10 17 1 0
BITMAP
3C00
3600
0000
3C00
7E00
F700
E300
C300
C380
C380
C380
C380
C380
C380
C380
FFC0
FFC0
ENDCHAR
STARTCHAR 00E3
ENCODING 227
SWIDTH 565 0
DWIDTH 11 0
BBX 10 17 1 0
BITMAP
3C00
0C00
0000
3C00
7E00
F700
E300
C300
C380
C380
C380
C380
C380
C380
C380
FFC0
FFC0
ENDCHAR
STARTCHAR 00E4
ENCODING 228
SWIDTH 565 0
DWIDTH 11 0
BBX 10 18 1 0
BITMAP
6200
7700
7700
0000
3C00
7E00
F700
E300
C300
C380
C380
C380
C380
C380
C380
C380
FFC0
FFC0
ENDCHAR
STARTCHAR 00E5
ENCODING 229
SWIDTH 565 0
DWIDTH 11 0
BBX 10 19 1 0
BITMAP
1800
3400
2400
1C00
0000
3C00
7E00
F700
E300
C300
C380
C380
C380
C380
C380
C380
C380
FFC0
FFC0
ENDCHAR
STARTCHAR 00E7
ENCODING 231
SWIDTH 668 0
DWIDTH 13 0
BBX 12 18 1 -4
BITMAP
0F80
1FE0
7CF0
7020
E000
C000
C000
C000
C000
E000
E020
7870
3FF0
0FC0
0200
0300
0900
0F00
ENDCHAR
STARTCHAR 00E8
ENCODING 232
SWIDTH 462 0
DWIDTH 9 0
BBX 10 17 0 0
BITMAP
1800
0800
0000
3E00
3E00
3E00
3000
3000
3000
FF00
FF00
3000
3000
3000
3000
3FC0
3FC0
ENDCHAR
STARTCHAR 00E9
ENCODING 233
SWIDTH 462 0
DWIDTH 9 0
BBX 10 17 0 0
BITMAP
0400
0C00
0000
3E00
3E00
3E00
3000
3000
3000
FF00
FF00
3000
3000
3000
3000
3FC0
3FC0
ENDCHAR
STARTCHAR 00EA
ENCODING 234
SWIDTH 462 0
DWIDTH 9 0
BBX 10 17 0 0
BITMAP
1C00
3600
0000
3E00
3E00
3E00
3000
3000
3000
FF00
FF00
3000
3000
3000
3000
3FC0
3FC0
ENDCHAR
STARTCHAR 00EB
ENCODING 235
SWIDTH 462 0
DWIDTH 9 0
BBX 10 18 0 0
BITMAP
2300
7780
7300
0000
3E00
3E00
3E00
3000
3000
3000
FF00
FF00
3000
3000
3000
3000
3FC0
3FC0
ENDCHAR
STARTCHAR 00EC
ENCODING 236
SWIDTH 205 0
DWIDTH 4 0
BBX 4 12 0 0
BITMAP
C0
60
20
00
70
70
70
70
70
70
70
70
ENDCHAR
STARTCHAR 00ED
ENCODING 237
SWIDTH 205 0
DWIDTH 4 0
BBX 3 12 1 0
BITMAP
60
40
C0
00
E0
E0
E0
E0
E0
E0
E0
E0
ENDCHAR
STARTCHAR 00EE
ENCODING 238
SWIDTH 205 0
DWIDTH 4 0
BBX 6 12 -1 0
BITMAP
38
6C
CC
00
38
38
38
38
38
38
38
38
ENDCHAR
STARTCHAR 00EF
ENCODING 239
SWIDTH 205 0
DWIDTH 4 0
BBX 7 12 -1 0
BITMAP
EE
EE
C6
00
38
38
38
38
38
38
38
38
ENDCHAR
STARTCHAR 00F1
ENCODING 241
SWIDTH 514 0
DWIDTH 10 0
BBX 9 17 1 0
BITMAP
3C00
0C00
0000
8380
E380
F380
FB80
FF80
EF80
E780
E380
E380
E380
E380
E380
E380
E380
ENDCHAR
STARTCHAR 00F2
ENCODING 242
SWIDTH 771 0
DWIDTH 15 0
BBX 14 17 1 0
BITMAP
0600
0300
0000
0780
1FE0
7CF8
7038
E01C
C00C
C00C
C00C
C00C
E01C
E01C
7878
3FF0
0FC0
ENDCHAR
STARTCHAR 00F3
ENCODING 243
SWIDTH 771 0
DWIDTH 15 0
BBX 14 17 1 0
BITMAP
0180
0300
0000
0780
1FE0
7CF8
7038
E01C
C00C
C00C
C00C
C00C
E01C
E01C
7878
3FF0
0FC0
ENDCHAR
STARTCHAR 00F4
ENCODING 244
SWIDTH 771 0
DWIDTH 15 0
BBX 14 17 1 0
BITMAP
0780
0CC0
0000
0780
1FE0
7CF8
7038
E01C
C00C
C00C
C00C
C00C
E01C
E01C
7878
3FF0
0FC0
ENDCHAR
STARTCHAR 00F5
ENCODING 245
SWIDTH 771 0
DWIDTH 15 0
BBX 14 17 1 0
BITMAP
0F80
0180
0000
0780
1FE0
7CF8
7038
E01C
C00C
C00C
C00C
C00C
E01C
E01C
7878
3FF0
0FC0
ENDCHAR
STARTCHAR 00F6
ENCODING 246
SWIDTH 771 0
DWIDTH 15 0
BBX 14 18 1 0
BITMAP
0840
1CE0
1CE0
0000
0780
1FE0
7CF8
7038
E01C
C00C
C00C
C00C
C00C
E01C
E01C
7878
3FF0
0FC0
ENDCHAR
STARTCHAR 00F7
ENCODING 247
SWIDTH 565 0
DWIDTH 11 0
BBX 9 9 1 2
BITMAP
0C00
1C00
0800
0000
FF80
FF80
0000
1C00
1C00
ENDCHAR
STARTCHAR 00F8
ENCODING 248
SWIDTH 771 0
DWIDTH 15 0
BBX 15 15 0 -1
BITMAP
07CC
1FFC
3E78
383C
706E
60CE
6186
E386
6306
660E
7C1C
3C3C
3FF8
6FE0
2000
ENDCHAR
STARTCHAR 00F9
ENCODING 249
SWIDTH 514 0
DWIDTH 10 0
BBX 8 17 1 0
BITMAP
30
18
00
C3
C3
C3
C3
C3
C3
C3
C3
C3
C3
C3
E7
7F
3E
ENDCHAR
STARTCHAR 00FA
ENCODING 250
SWIDTH 514 0
DWIDTH 10 0
BBX 8 17 1 0
BITMAP
0C
08
00
C3
C3
C3
C3
C3
C3
C3
C3
C3
C3
C3
E7
7F
3E
ENDCHAR
STARTCHAR 00FB
ENCODING 251
SWIDTH 514 0
DWIDTH 10 0
BBX 8 17 1 0
BITMAP
3C
36
40
C3
C3
C3
C3
C3
C3
C3
C3
C3
C3
C3
E7
7F
3E
ENDCHAR
STARTCHAR 00FC
ENCODING 252
SWIDTH 514 0
DWIDTH 10 0
BBX 8 18 1 0
BITMAP
62
E7
67
00
C3
C3
C3
C3
C3
C3
C3
C3
C3
C3
C3
E7
7F
3E
ENDCHAR
STARTCHAR 00FD
ENCODING 253
SWIDTH 514 0
DWIDTH 10 0
BBX 8 17 1 0
BITMAP
0C
18
00
C3
C3
C3
C3
C3
C3
C3
C3
E7
7E
3C
18
18
18
ENDCHAR
STARTCHAR 00FF
ENCODING 255
SWIDTH 514 0
DWIDTH 10 0
BBX 8 18 1 0
BITMAP
42
E7
E7
00
C3
C3
C3
C3
C3
C3
C3
C3
E7
7E
3C
18
18
18
ENDCHAR
STARTCHAR 0100
ENCODING 256
SWIDTH 565 0
DWIDTH 11 0
BBX 10 17 1 0
BITMAP
7E00
7E00
0000
3C00
7E00
F700
E300
C300
C380
C380
C380
C380
C380
C380
C380
FFC0
FFC0
ENDCHAR
STARTCHAR 0101
ENCODING 257
SWIDTH 565 0
DWIDTH 11 0
BBX 10 17 1 0
BITMAP
7E00
7E00
0000
3C00
7E00
F700
E300
C300
C380
C380
C380
C380
C380
C380
C380
FFC0
FFC0
ENDCHAR
STARTCHAR 0102
ENCODING 258
SWIDTH 565 0
DWIDTH 11 0
BBX 10 17 1 0
BITMAP
2600
3C00
0000
3C00
7E00
F700
E300
C300
C380
C380
C380
C380
C380
C380
C380
FFC0
FFC0
ENDCHAR
STARTCHAR 0103
ENCODING 259
SWIDTH 565 0
DWIDTH 11 0
BBX 10 17 1 0
BITMAP
2600
3C00
0000
3C00
7E00
F700
E300
C300
C380
C380
C380
C380
C380
C380
C380
FFC0
FFC0
ENDCHAR
STARTCHAR 0104
ENCODING 260
SWIDTH 565 0
DWIDTH 11 0
BBX 10 18 1 -4
BITMAP
3C00
7E00
F700
E300
C300
C380
C380
C380
C380
C380
C380
C380
FFC0
FFC0
0100
0300
0340
01C0
ENDCHAR
STARTCHAR 0105
ENCODING 261
SWIDTH 565 0
DWIDTH 11 0
BBX 10 18 1 -4
BITMAP
3C00
7E00
F700
E300
C300
C380
C380
C380
C380
C380
C380
C380
FFC0
FFC0
0100
0300
0340
01C0
ENDCHAR
STARTCHAR 0106
ENCODING 262
SWIDTH 668 0
DWIDTH 13 0
BBX 12 17 1 0
BITMAP
0180
0300
0000
0F80
1FE0
7CF0
7020
E000
C000
C000
C000
C000
E000
E020
7870
3FF0
0FC0
ENDCHAR
STARTCHAR 0107
ENCODING 263
SWIDTH 668 0
DWIDTH 13 0
BBX 12 17 1 0
BITMAP
0180
0300
0000
0F80
1FE0
7CF0
7020
E000
C000
C000
C000
C000
E000
E020
7870
3FF0
0FC0
ENDCHAR
STARTCHAR 010A
ENCODING 266
SWIDTH 668 0
DWIDTH 13 0
BBX 12 18 1 0
BITMAP
0300
0780
0300
0000
0F80
1FE0
7CF0
7020
E000
C000
C000
C000
C000
E000
E020
7870
3FF0
0FC0
ENDCHAR
STARTCHAR 010B
ENCODING 267
SWIDTH 668 0
DWIDTH 13 0
BBX 12 18 1 0
BITMAP
0300
0780
0300
0000
0F80
1FE0
7CF0
7020
E000
C000
C000
C000
C000
E000
E020
7870
3FF0
0FC0
ENDCHAR
STARTCHAR 010C
ENCODING 268
SWIDTH 668 0
DWIDTH 13 0
BBX 12 18 1 0
BITMAP
0CC0
0780
0700
0000
0F80
1FE0
7CF0
7020
E000
C000
C000
C000
C000
E000
E020
7870
3FF0
0FC0
ENDCHAR
STARTCHAR 010D
ENCODING 269
SWIDTH 668 0
DWIDTH 13 0
BBX 12 18 1 0
BITMAP
0CC0
0780
0700
0000
0F80
1FE0
7CF0
7020
E000
C000
C000
C000
C000
E000
E020
7870
3FF0
0FC0
ENDCHAR
STARTCHAR 010E
ENCODING 270
SWIDTH 668 0
DWIDTH 13 0
BBX 11 18 1 0
BITMAP
6300
3600
1C00
0000
FC00
FF00
FFC0
E1C0
E0E0
E060
E060
E060
E060
E0E0
E0E0
E3C0
FF80
FE00
ENDCHAR
STARTCHAR 010F
ENCODING 271
SWIDTH 668 0
DWIDTH 13 0
BBX 11 18 1 0
BITMAP
6300
3600
1C00
0000
FC00
FF00
FFC0
E1C0
E0E0
E060
E060
E060
E060
E0E0
E0E0
E3C0
FF80
FE00
ENDCHAR
STARTCHAR 0110
ENCODING 272
SWIDTH 668 0
DWIDTH 13 0
BBX 13 14 0 0
BITMAP
3E00
3FC0
3FE0
3070
3038
3038
FE18
FE18
3038
3038
3070
31F0
3FE0
3F80
ENDCHAR
STARTCHAR 0111
ENCODING 273
SWIDTH 668 0
DWIDTH 13 0
BBX 13 14 0 0
BITMAP
3E00
3FC0
3FE0
3070
3038
3038
FE18
FE18
3038
3038
3070
31F0
3FE0
3F80
ENDCHAR
STARTCHAR 0112
ENCODING 274
SWIDTH 462 0
DWIDTH 9 0
BBX 10 17 0 0
BITMAP
3E00
3E00
0000
3E00
3E00
3E00
3000
3000
3000
FF00
FF00
3000
3000
3000
3000
3FC0
3FC0
ENDCHAR
STARTCHAR 0113
ENCODING 275
SWIDTH 462 0
DWIDTH 9 0
BBX 10 17 0 0
BITMAP
3E00
3E00
0000
3E00
3E00
3E00
3000
3000
3000
FF00
FF00
3000
3000
3000
3000
3FC0
3FC0
ENDCHAR
STARTCHAR 0116
ENCODING 278
SWIDTH 462 0
DWIDTH 9 0
BBX 10 18 0 0
BITMAP
0C00
1C00
1C00
0000
3E00
3E00
3E00
3000
3000
3000
FF00
FF00
3000
3000
3000
3000
3FC0
3FC0
ENDCHAR
STARTCHAR 0117
ENCODING 279
SWIDTH 462 0
DWIDTH 9 0
BBX 10 18 0 0
BITMAP
0C00
1C00
1C00
0000
3E00
3E00
3E00
3000
3000
3000
FF00
FF00
3000
3000
3000
3000
3FC0
3FC0
ENDCHAR
STARTCHAR 0118
ENCODING 280
SWIDTH 462 0
DWIDTH 9 0
BBX 10 18 0 -4
BITMAP
3E00
3E00
3E00
3000
3000
3000
FF00
FF00
3000
3000
3000
3000
3FC0
3FC0
0180
0100
0140
01C0
ENDCHAR
STARTCHAR 0119
ENCODING 281
SWIDTH 462 0
DWIDTH 9 0
BBX 10 18 0 -4
BITMAP
3E00
3E00
3E00
3000
3000
3000
FF00
FF00
3000
3000
3000
3000
3FC0
3FC0
0180
0100
0140
01C0
ENDCHAR
STARTCHAR 011A
ENCODING 282
SWIDTH 462 0
DWIDTH 9 0
BBX 10 18 0 0
BITMAP
2300
3600
1C00
0000
3E00
3E00
3E00
3000
3000
3000
FF00
FF00
3000
3000
3000
3000
3FC0
3FC0
ENDCHAR
STARTCHAR 011B
ENCODING 283
SWIDTH 462 0
DWIDTH 9 0
BBX 10 18 0 0
BITMAP
2300
3600
1C00
0000
3E00
3E00
3E00
3000
3000
3000
FF00
FF00
3000
3000
3000
3000
3FC0
3FC0
ENDCHAR
STARTCHAR 011E
ENCODING 286
SWIDTH 822 0
DWIDTH 16 0
BBX 15 17 1 0
BITMAP
0C80
0780
0000
0780
1FE0
7CF0
7020
E000
C000
C1FE
C1FE
C01C
E01C
E038
7878
3FF0
0FC0
ENDCHAR
STARTCHAR 011F
ENCODING 287
SWIDTH 822 0
DWIDTH 16 0
BBX 15 17 1 0
BITMAP
0C80
0780
0000
0780
1FE0
7CF0
7020
E000
C000
C1FE
C1FE
C01C
E01C
E038
7878
3FF0
0FC0
ENDCHAR
STARTCHAR 0120
ENCODING 288
SWIDTH 822 0
DWIDTH 16 0
BBX 15 18 1 0
BITMAP
0300
0700
0300
0000
0780
1FE0
7CF0
7020
E000
C000
C1FE
C1FE
C01C
E01C
E038
7878
3FF0
0FC0
ENDCHAR
STARTCHAR 0121
ENCODING 289
SWIDTH 822 0
DWIDTH 16 0
BBX 15 18 1 0
BITMAP
0300
0700
0300
0000
0780
1FE0
7CF0
7020
E000
C000
C1FE
C1FE
C01C
E01C
E038
7878
3FF0
0FC0
ENDCHAR
STARTCHAR 0124
ENCODING 292
SWIDTH 565 0
DWIDTH 11 0
BBX 10 17 0 0
BITMAP
0F00
1980
0000
30C0
30C0
30C0
30C0
30C0
30C0
FFC0
FFC0
30C0
30C0
30C0
30C0
30C0
30C0
ENDCHAR
STARTCHAR 0125
ENCODING 293
SWIDTH 565 0
DWIDTH 11 0
BBX 10 17 0 0
BITMAP
0F00
1980
0000
30C0
30C0
30C0
30C0
30C0
30C0
FFC0
FFC0
30C0
30C0
30C0
30C0
30C0
30C0
ENDCHAR
STARTCHAR 0128
ENCODING 296
SWIDTH 205 0
DWIDTH 4 0
BBX 4 12 0 0
BITMAP
F0
30
00
00
70
70
70
70
70
70
70
70
ENDCHAR
STARTCHAR 0129
ENCODING 297
SWIDTH 205 0
DWIDTH 4 0
BBX 4 12 0 0
BITMAP
F0
30
00
00
70
70
70
70
70
70
70
70
ENDCHAR
STARTCHAR 012A
ENCODING 298
SWIDTH 205 0
DWIDTH 4 0
BBX 5 12 0 0
BITMAP
F8
F8
00
00
70
70
70
70
70
70
70
70
ENDCHAR
STARTCHAR 012B
ENCODING 299
SWIDTH 205 0
DWIDTH 4 0
BBX 5 12 0 0
BITMAP
F8
F8
00
00
70
70
70
70
70
70
70
70
ENDCHAR
STARTCHAR 012E
ENCODING 302
SWIDTH 205 0
DWIDTH 4 0
BBX 6 19 -1 -3
BITMAP
10
FC
38
38
40
00
00
30
30
30
30
30
30
30
30
20
40
68
30
ENDCHAR
STARTCHAR 012F
ENCODING 303
SWIDTH 205 0
DWIDTH 4 0
BBX 6 19 -1 -3
BITMAP
10
FC
38
38
40
00
00
30
30
30
30
30
30
30
30
20
40
68
30
ENDCHAR
STARTCHAR 0130
ENCODING 304
SWIDTH 205 0
DWIDTH 4 0
BBX 3 13 1 0
BITMAP
40
E0
E0
00
00
E0
E0
E0
E0
E0
E0
E0
E0
ENDCHAR
STARTCHAR 0139
ENCODING 313
SWIDTH 411 0
DWIDTH 8 0
BBX 7 17 1 0
BITMAP
60
40
00
E0
E0
E0
E0
E0
E0
E0
E0
E0
E0
E0
E0
FE
FE
ENDCHAR
STARTCHAR 013A
ENCODING 314
SWIDTH 411 0
DWIDTH 8 0
BBX 7 17 1 0
BITMAP
60
40
00
E0
E0
E0
E0
E0
E0
E0
E0
E0
E0
E0
E0
FE
FE
ENDCHAR
STARTCHAR 013D
ENCODING 317
SWIDTH 411 0
DWIDTH 8 0
BBX 9 18 -1 0
BITMAP
CC00
6C00
3800
0000
3800
3800
3800
3800
3800
3800
3800
3800
3800
3800
3800
3800
3F80
3F80
ENDCHAR
STARTCHAR 013E
ENCODING 318
SWIDTH 411 0
DWIDTH 8 0
BBX 9 18 -1 0
BITMAP
CC00
6C00
3800
0000
3800
3800
3800
3800
3800
3800
3800
3800
3800
3800
3800
3800
3F80
3F80
ENDCHAR
STARTCHAR 0141
ENCODING 321
SWIDTH 462 0
DWIDTH 9 0
BBX 9 14 0 0
BITMAP
3800
3800
3800
3800
3800
3E00
3C00
7800
F800
3800
3800
3800
3F80
3F80
ENDCHAR
STARTCHAR 0142
ENCODING 322
SWIDTH 462 0
DWIDTH 9 0
BBX 9 14 0 0
BITMAP
3800
3800
3800
3800
3800
3E00
3C00
7800
F800
3800
3800
3800
3F80
3F80
ENDCHAR
STARTCHAR 0143
ENCODING 323
SWIDTH 514 0
DWIDTH 10 0
BBX 9 17 1 0
BITMAP
0C00
0800
0000
8380
E380
F380
FB80
FF80
EF80
E780
E380
E380
E380
E380
E380
E380
E380
ENDCHAR
STARTCHAR 0144
ENCODING 324
SWIDTH 514 0
DWIDTH 10 0
BBX 9 17 1 0
BITMAP
0C00
0800
0000
8380
E380
F380
FB80
FF80
EF80
E780
E380
E380
E380
E380
E380
E380
E380
ENDCHAR
STARTCHAR 0147
ENCODING 327
SWIDTH 514 0
DWIDTH 10 0
BBX 9 18 1 0
BITMAP
6300
3600
1C00
0000
8380
E380
F380
FB80
FF80
EF80
E780
E380
E380
E380
E380
E380
E380
E380
ENDCHAR
STARTCHAR 0148
ENCODING 328
SWIDTH 514 0
DWIDTH 10 0
BBX 9 18 1 0
BITMAP
6300
3600
1C00
0000
8380
E380
F380
FB80
FF80
EF80
E780
E380
E380
E380
E380
E380
E380
E380
ENDCHAR
STARTCHAR 014C
ENCODING 332
SWIDTH 771 0
DWIDTH 15 0
BBX 14 17 1 0
BITMAP
0FC0
0FC0
0000
0780
1FE0
7CF8
7038
E01C
C00C
C00C
C00C
C00C
E01C
E01C
7878
3FF0
0FC0
ENDCHAR
STARTCHAR 014D
ENCODING 333
SWIDTH 771 0
DWIDTH 15 0
BBX 14 17 1 0
BITMAP
0FC0
0FC0
0000
0780
1FE0
7CF8
7038
E01C
C00C
C00C
C00C
C00C
E01C
E01C
7878
3FF0
0FC0
ENDCHAR
STARTCHAR 0150
ENCODING 336
SWIDTH 771 0
DWIDTH 15 0
BBX 14 17 1 0
BITMAP
0640
04C0
0000
0780
1FE0
7CF8
7038
E01C
C00C
C00C
C00C
C00C
E01C
E01C
7878
3FF0
0FC0
ENDCHAR
STARTCHAR 0151
ENCODING 337
SWIDTH 771 0
DWIDTH 15 0
BBX 14 17 1 0
BITMAP
0640
04C0
0000
0780
1FE0
7CF8
7038
E01C
C00C
C00C
C00C
C00C
E01C
E01C
7878
3FF0
0FC0
ENDCHAR
STARTCHAR 0154
ENCODING 340
SWIDTH 565 0
DWIDTH 11 0
BBX 11 17 0 0
BITMAP
0300
0600
0000
3F00
3FC0
3FE0
30E0
3060
3060
31E0
FFC0
FFC0
30C0
30C0
30E0
30E0
30E0
ENDCHAR
STARTCHAR 0155
ENCODING 341
SWIDTH 565 0
DWIDTH 11 0
BBX 11 17 0 0
BITMAP
0300
0600
0000
3F00
3FC0
3FE0
30E0
3060
3060
31E0
FFC0
FFC0
30C0
30C0
30E0
30E0
30E0
ENDCHAR
STARTCHAR 0158
ENCODING 344
SWIDTH 565 0
DWIDTH 11 0
BBX 11 18 0 0
BITMAP
1980
0F00
0E00
0000
3F00
3FC0
3FE0
30E0
3060
3060
31E0
FFC0
FFC0
30C0
30C0
30E0
30E0
30E0
ENDCHAR
STARTCHAR 0159
ENCODING 345
SWIDTH 565 0
DWIDTH 11 0
BBX 11 18 0 0
BITMAP
1980
0F00
0E00
0000
3F00
3FC0
3FE0
30E0
3060
3060
31E0
FFC0
FFC0
30C0
30C0
30E0
30E0
30E0
ENDCHAR
STARTCHAR 015A
ENCODING 346
SWIDTH 462 0
DWIDTH 9 0
BBX 8 17 1 0
BITMAP
0C
18
00
3C
7E
E7
E3
E0
70
3C
1E
0F
03
C3
E7
FF
7E
ENDCHAR
STARTCHAR 015B
ENCODING 347
SWIDTH 462 0
DWIDTH 9 0
BBX 8 17 1 0
BITMAP
0C
18
00
3C
7E
E7
E3
E0
70
3C
1E
0F
03
C3
E7
FF
7E
ENDCHAR
STARTCHAR 015E
ENCODING 350
SWIDTH 462 0
DWIDTH 9 0
BBX 8 18 1 -4
BITMAP
3C
7E
E7
E3
E0
70
3C
1E
0F
03
C3
E7
FF
7E
18
08
2C
38
ENDCHAR
STARTCHAR 015F
ENCODING 351
SWIDTH 462 0
DWIDTH 9 0
BBX 8 18 1 -4
BITMAP
3C
7E
E7
E3
E0
70
3C
1E
0F
03
C3
E7
FF
7E
18
08
2C
38
ENDCHAR
STARTCHAR 0160
ENCODING 352
SWIDTH 462 0
DWIDTH 9 0
BBX 8 18 1 0
BITMAP
66
3C
3C
00
3C
7E
E7
E3
E0
70
3C
1E
0F
03
C3
E7
FF
7E
ENDCHAR
STARTCHAR 0161
ENCODING 353
SWIDTH 462 0
DWIDTH 9 0
BBX 8 18 1 0
BITMAP
66
3C
3C
00
3C
7E
E7
E3
E0
70
3C
1E
0F
03
C3
E7
FF
7E
ENDCHAR
STARTCHAR 0162
ENCODING 354
SWIDTH 514 0
DWIDTH 10 0
BBX 10 18 0 -4
BITMAP
FFC0
FFC0
FFC0
0C00
0C00
0C00
0C00
0C00
0C00
0C00
0C00
0C00
0C00
0C00
0800
0400
0600
1C00
ENDCHAR
STARTCHAR 0163
ENCODING 355
SWIDTH 514 0
DWIDTH 10 0
BBX 10 18 0 -4
BITMAP
FFC0
FFC0
FFC0
0C00
0C00
0C00
0C00
0C00
0C00
0C00
0C00
0C00
0C00
0C00
0800
0400
0600
1C00
ENDCHAR
STARTCHAR 0164
ENCODING 356
SWIDTH 514 0
DWIDTH 10 0
BBX 10 18 0 0
BITMAP
3300
1E00
1E00
0000
FFC0
FFC0
FFC0
0C00
0C00
0C00
0C00
0C00
0C00
0C00
0C00
0C00
0C00
0C00
ENDCHAR
STARTCHAR 0165
ENCODING 357
SWIDTH 514 0
DWIDTH 10 0
BBX 10 18 0 0
BITMAP
3300
1E00
1E00
0000
FFC0
FFC0
FFC0
0C00
0C00
0C00
0C00
0C00
0C00
0C00
0C00
0C00
0C00
0C00
ENDCHAR
STARTCHAR 0168
ENCODING 360
SWIDTH 514 0
DWIDTH 10 0
BBX 8 17 1 0
BITMAP
3C
0C
00
C3
C3
C3
C3
C3
C3
C3
C3
C3
C3
C3
E7
7F
3E
ENDCHAR
STARTCHAR 0169
ENCODING 361
SWIDTH 514 0
DWIDTH 10 0
BBX 8 17 1 0
BITMAP
3C
0C
00
C3
C3
C3
C3
C3
C3
C3
C3
C3
C3
C3
E7
7F
3E
ENDCHAR
STARTCHAR 016A
ENCODING 362
SWIDTH 514 0
DWIDTH 10 0
BBX 8 17 1 0
BITMAP
7E
7E
00
C3
C3
C3
C3
C3
C3
C3
C3
C3
C3
C3
E7
7F
3E
ENDCHAR
STARTCHAR 016B
ENCODING 363
SWIDTH 514 0
DWIDTH 10 0
BBX 8 17 1 0
BITMAP
7E
7E
00
C3
C3
C3
C3
C3
C3
C3
C3
C3
C3
C3
E7
7F
3E
ENDCHAR
STARTCHAR 016E
ENCODING 366
SWIDTH 514 0
DWIDTH 10 0
BBX 8 19 1 0
BITMAP
18
34
24
1C
00
C3
C3
C3
C3
C3
C3
C3
C3
C3
C3
C3
E7
7F
3E
ENDCHAR
STARTCHAR 016F
ENCODING 367
SWIDTH 514 0
DWIDTH 10 0
BBX 8 19 1 0
BITMAP
18
34
24
1C
00
C3
C3
C3
C3
C3
C3
C3
C3
C3
C3
C3
E7
7F
3E
ENDCHAR
STARTCHAR 0170
ENCODING 368
SWIDTH 514 0
DWIDTH 10 0
BBX 8 17 1 0
BITMAP
33
26
00
C3
C3
C3
C3
C3
C3
C3
C3
C3
C3
C3
E7
7F
3E
ENDCHAR
STARTCHAR 0171
ENCODING 369
SWIDTH 514 0
DWIDTH 10 0
BBX 8 17 1 0
BITMAP
33
26
00
C3
C3
C3
C3
C3
C3
C3
C3
C3
C3
C3
E7
7F
3E
ENDCHAR
STARTCHAR 0172
ENCODING 370
SWIDTH 514 0
DWIDTH 10 0
BBX 8 18 1 -4
BITMAP
C3
C3
C3
C3
C3
C3
C3
C3
C3
C3
C3
E7
7F
3E
10
30
34
1C
ENDCHAR
STARTCHAR 0173
ENCODING 371
SWIDTH 514 0
DWIDTH 10 0
BBX 8 18 1 -4
BITMAP
C3
C3
C3
C3
C3
C3
C3
C3
C3
C3
C3
E7
7F
3E
10
30
34
1C
ENDCHAR
STARTCHAR 0176
ENCODING 374
SWIDTH 514 0
DWIDTH 10 0
BBX 8 17 1 0
BITMAP
3C
66
00
C3
C3
C3
C3
C3
C3
C3
C3
E7
7E
3C
18
18
18
ENDCHAR
STARTCHAR 0177
ENCODING 375
SWIDTH 514 0
DWIDTH 10 0
BBX 8 17 1 0
BITMAP
3C
66
00
C3
C3
C3
C3
C3
C3
C3
C3
E7
7E
3C
18
18
18
ENDCHAR
STARTCHAR 0178
ENCODING 376
SWIDTH 514 0
DWIDTH 10 0
BBX 8 18 1 0
BITMAP
42
E7
E7
00
C3
C3
C3
C3
C3
C3
C3
C3
E7
7E
3C
18
18
18
ENDCHAR
STARTCHAR 0179
ENCODING 377
SWIDTH 514 0
DWIDTH 10 0
BBX 10 17 0 0
BITMAP
0600
0400
0000
7FC0
7FC0
7F80
0380
0700
0600
0E00
0C00
1C00
3800
3000
7000
7F80
FF80
ENDCHAR
STARTCHAR 017A
ENCODING 378
SWIDTH 514 0
DWIDTH 10 0
BBX 10 17 0 0
BITMAP
0600
0400
0000
7FC0
7FC0
7F80
0380
0700
0600
0E00
0C00
1C00
3800
3000
7000
7F80
FF80
ENDCHAR
STARTCHAR 017B
ENCODING 379
SWIDTH 514 0
DWIDTH 10 0
BBX 10 18 0 0
BITMAP
0C00
0E00
0E00
0000
7FC0
7FC0
7F80
0380
0700
0600
0E00
0C00
1C00
3800
3000
7000
7F80
FF80
ENDCHAR
STARTCHAR 017C
ENCODING 380
SWIDTH 514 0
DWIDTH 10 0
BBX 10 18 0 0
BITMAP
0C00
0E00
0E00
0000
7FC0
7FC0
7F80
0380
0700
0600
0E00
0C00
1C00
3800
3000
7000
7F80
FF80
ENDCHAR
STARTCHAR 017D
ENCODING 381
SWIDTH 514 0
DWIDTH 10 0
BBX 10 18 0 0
BITMAP
3300
1B00
0E00
0000
7FC0
7FC0
7F80
0380
0700
0600
0E00
0C00
1C00
3800
3000
7000
7F80
FF80
ENDCHAR
STARTCHAR 017E
ENCODING 382
SWIDTH 514 0
DWIDTH 10 0
BBX 10 18 0 0
BITMAP
3300
1B00
0E00
0000
7FC0
7FC0
7F80
0380
0700
0600
0E00
0C00
1C00
3800
3000
7000
7F80
FF80
ENDCHAR
STARTCHAR 01A0
ENCODING 416
SWIDTH 771 0
DWIDTH 15 0
BBX 14 15 1 0
BITMAP
0008
07D8
1FE0
7CF8
7038
E01C
C00C
C00C
C00C
C00C
E01C
E01C
7878
3FF0
0FC0
ENDCHAR
STARTCHAR 01A1
ENCODING 417
SWIDTH 771 0
DWIDTH 15 0
BBX 14 15 1 0
BITMAP
0008
07D8
1FE0
7CF8
7038
E01C
C00C
C00C
C00C
C00C
E01C
E01C
7878
3FF0
0FC0
ENDCHAR
STARTCHAR 01AF
ENCODING 431
SWIDTH 514 0
DWIDTH 10 0
BBX 10 15 1 0
BITMAP
00C0
C3C0
C300
C300
C300
C300
C300
C300
C300
C300
C300
C300
E700
7F00
3E00
ENDCHAR
STARTCHAR 01B0
ENCODING 432
SWIDTH 514 0
DWIDTH 10 0
BBX 10 15 1 0
BITMAP
00C0
C3C0
C300
C300
C300
C300
C300
C300
C300
C300
C300
C300
E700
7F00
3E00
ENDCHAR
STARTCHAR 01CD
ENCODING 461
SWIDTH 565 0
DWIDTH 11 0
BBX 10 18 1 0
BITMAP
6600
3600
1C00
0000
3C00
7E00
F700
E300
C300
C380
C380
C380
C380
C380
C380
C380
FFC0
FFC0
ENDCHAR
STARTCHAR 01CE
ENCODING 462
SWIDTH 565 0
DWIDTH 11 0
BBX 10 18 1 0
BITMAP
6600
3600
1C00
0000
3C00
7E00
F700
E300
C300
C380
C380
C380
C380
C380
C380
C380
FFC0
FFC0
ENDCHAR
STARTCHAR 01CF
ENCODING 463
SWIDTH 205 0
DWIDTH 4 0
BBX 5 12 0 0
BITMAP
D8
70
00
00
70
70
70
70
70
70
70
70
ENDCHAR
STARTCHAR 01D0
ENCODING 464
SWIDTH 205 0
DWIDTH 4 0
BBX 5 12 0 0
BITMAP
D8
70
00
00
70
70
70
70
70
70
70
70
ENDCHAR
STARTCHAR 01D1
ENCODING 465
SWIDTH 771 0
DWIDTH 15 0
BBX 14 18 1 0
BITMAP
0CC0
0780
0780
0000
0780
1FE0
7CF8
7038
E01C
C00C
C00C
C00C
C00C
E01C
E01C
7878
3FF0
0FC0
ENDCHAR
STARTCHAR 01D2
ENCODING 466
SWIDTH 771 0
DWIDTH 15 0
BBX 14 18 1 0
BITMAP
0CC0
0780
0780
0000
0780
1FE0
7CF8
7038
E01C
C00C
C00C
C00C
C00C
E01C
E01C
7878
3FF0
0FC0
ENDCHAR
STARTCHAR 01D3
ENCODING 467
SWIDTH 514 0
DWIDTH 10 0
BBX 8 18 1 0
BITMAP
66
34
1C
00
C3
C3
C3
C3
C3
C3
C3
C3
C3
C3
C3
E7
7F
3E
ENDCHAR
STARTCHAR 01D4
ENCODING 468
SWIDTH 514 0
DWIDTH 10 0
BBX 8 18 1 0
BITMAP
66
34
1C
00
C3
C3
C3
C3
C3
C3
C3
C3
C3
C3
C3
E7
7F
3E
ENDCHAR
STARTCHAR 02C6
ENCODING 710
SWIDTH 308 0
DWIDTH 6 0
BBX 6 2 0 15
BITMAP
78
EC
ENDCHAR
STARTCHAR 02C7
ENCODING 711
SWIDTH 308 0
DWIDTH 6 0
BBX 6 3 0 15
BITMAP
CC
68
38
ENDCHAR
STARTCHAR 02D8
ENCODING 728
SWIDTH 257 0
DWIDTH 5 0
BBX 5 2 0 15
BITMAP
C8
78
ENDCHAR
STARTCHAR 02D9
ENCODING 729
SWIDTH 154 0
DWIDTH 3 0
BBX 3 3 0 15
BITMAP
E0
E0
60
ENDCHAR
STARTCHAR 02DA
ENCODING 730
SWIDTH 205 0
DWIDTH 4 0
BBX 4 4 0 15
BITMAP
60
F0
90
F0
ENDCHAR
STARTCHAR 02DB
ENCODING 731
SWIDTH 205 0
DWIDTH 4 0
BBX 4 4 0 -4
BITMAP
40
80
D0
60
ENDCHAR
STARTCHAR 02DC
ENCODING 732
SWIDTH 205 0
DWIDTH 4 0
BBX 5 2 0 15
BITMAP
F8
10
ENDCHAR
STARTCHAR 02DD
ENCODING 733
SWIDTH 308 0
DWIDTH 6 0
BBX 6 2 0 15
BITMAP
6C
C8
ENDCHAR
STARTCHAR 0300
ENCODING 768
SWIDTH 0 0
DWIDTH 0 0
BBX 3 2 -3 15
BITMAP
C0
60
ENDCHAR
STARTCHAR 0301
ENCODING 769
SWIDTH 0 0
DWIDTH 0 0
BBX 3 2 -3 15
BITMAP
60
C0
ENDCHAR
STARTCHAR 0302
ENCODING 770
SWIDTH 0 0
DWIDTH 0 0
BBX 6 2 -6 15
BITMAP
78
DC
ENDCHAR
STARTCHAR 0303
ENCODING 771
SWIDTH 0 0
DWIDTH 0 0
BBX 5 2 -5 15
BITMAP
F8
18
ENDCHAR
STARTCHAR 0304
ENCODING 772
SWIDTH 0 0
DWIDTH 0 0
BBX 6 2 -6 15
BITMAP
FC
FC
ENDCHAR
STARTCHAR 0306
ENCODING 774
SWIDTH 0 0
DWIDTH 0 0
BBX 5 2 -5 15
BITMAP
98
F0
ENDCHAR
STARTCHAR 0307
ENCODING 775
SWIDTH 0 0
DWIDTH 0 0
BBX 3 3 -3 15
BITMAP
E0
E0
E0
ENDCHAR
STARTCHAR 0308
ENCODING 776
SWIDTH 0 0
DWIDTH 0 0
BBX 8 3 -8 14
BITMAP
62
E7
E7
ENDCHAR
STARTCHAR 0309
ENCODING 777
SWIDTH 0 0
DWIDTH 0 0
BBX 2 3 -2 15
BITMAP
40
C0
C0
ENDCHAR
STARTCHAR 030A
ENCODING 778
SWIDTH 0 0
DWIDTH 0 0
BBX 4 4 -4 15
BITMAP
60
F0
90
F0
ENDCHAR
STARTCHAR 030B
ENCODING 779
SWIDTH 0 0
DWIDTH 0 0
BBX 6 2 -6 15
BITMAP
CC
98
ENDCHAR
STARTCHAR 030C
ENCODING 780
SWIDTH 0 0
DWIDTH 0 0
BBX 6 3 -6 15
BITMAP
CC
78
70
ENDCHAR
STARTCHAR 031B
ENCODING 795
SWIDTH 0 0
DWIDTH 0 0
BBX 3 2 -3 13
BITMAP
60
E0
ENDCHAR
STARTCHAR 0323
ENCODING 803
SWIDTH 0 0
DWIDTH 0 0
BBX 3 3 -3 -5
BITMAP
C0
E0
E0
ENDCHAR
STARTCHAR 0326
ENCODING 806
SWIDTH 0 0
DWIDTH 0 0
BBX 3 3 -3 -4
BITMAP
60
40
C0
ENDCHAR
STARTCHAR 0327
ENCODING 807
SWIDTH 0 0
DWIDTH 0 0
BBX 4 4 -4 -4
BITMAP
20
30
90
F0
ENDCHAR
STARTCHAR 0328
ENCODING 808
SWIDTH 0 0
DWIDTH 0 0
BBX 4 4 -4 -4
BITMAP
C0
80
B0
60
ENDCHAR
STARTCHAR 0335
ENCODING 821
SWIDTH 0 0
DWIDTH 0 0
BBX 7 2 -7 3
BITMAP
FE
FE
ENDCHAR
STARTCHAR 1EA0
ENCODING 7840
SWIDTH 565 0
DWIDTH 11 0
BBX 10 19 1 -5
BITMAP
3C00
7E00
F700
E300
C300
C380
C380
C380
C380
C380
C380
C380
FFC0
FFC0
0000
0000
1800
1C00
1C00
ENDCHAR
STARTCHAR 1EA1
ENCODING 7841
SWIDTH 565 0
DWIDTH 11 0
BBX 10 19 1 -5
BITMAP
3C00
7E00
F700
E300
C300
C380
C380
C380
C380
C380
C380
C380
FFC0
FFC0
0000
0000
1800
1C00
1C00
ENDCHAR
STARTCHAR 1EA2
ENCODING 7842
SWIDTH 565 0
DWIDTH 11 0
BBX 10 18 1 0
BITMAP
0800
1800
1800
0000
3C00
7E00
F700
E300
C300
C380
C380
C380
C380
C380
C380
C380
FFC0
FFC0
ENDCHAR
STARTCHAR 1EA3
ENCODING 7843
SWIDTH 565 0
DWIDTH 11 0
BBX 10 18 1 0
BITMAP
0800
1800
1800
0000
3C00
7E00
F700
E300
C300
C380
C380
C380
C380
C380
C380
C380
FFC0
FFC0
ENDCHAR
STARTCHAR 1EA4
ENCODING 7844
SWIDTH 565 0
DWIDTH 11 0
BBX 10 19 1 0
BITMAP
0080
0180
3C00
3600
0000
3C00
7E00
F700
E300
C300
C380
C380
C380
C380
C380
C380
C380
FFC0
FFC0
ENDCHAR
STARTCHAR 1EA5
ENCODING 7845
SWIDTH 565 0
DWIDTH 11 0
BBX 10 19 1 0
BITMAP
0080
0180
3C00
3600
0000
3C00
7E00
F700
E300
C300
C380
C380
C380
C380
C380
C380
C380
FFC0
FFC0
ENDCHAR
STARTCHAR 1EA6
ENCODING 7846
SWIDTH 565 0
DWIDTH 11 0
BBX 11 19 0 0
BITMAP
8000
C000
1E00
1B00
0000
1E00
3F00
7B80
7180
6180
61C0
61C0
61C0
61C0
61C0
61C0
61C0
7FE0
7FE0
ENDCHAR
STARTCHAR 1EA7
ENCODING 7847
SWIDTH 565 0
DWIDTH 11 0
BBX 11 19 0 0
BITMAP
8000
C000
1E00
1B00
0000
1E00
3F00
7B80
7180
6180
61C0
61C0
61C0
61C0
61C0
61C0
61C0
7FE0
7FE0
ENDCHAR
STARTCHAR 1EA8
ENCODING 7848
SWIDTH 565 0
DWIDTH 11 0
BBX 10 20 1 0
BITMAP
0180
0100
0100
3D00
3600
0000
3C00
7E00
F700
E300
C300
C380
C380
C380
C380
C380
C380
C380
FFC0
FFC0
ENDCHAR
STARTCHAR 1EA9
ENCODING 7849
SWIDTH 565 0
DWIDTH 11 0
BBX 10 20 1 0
BITMAP
0180
0100
0100
3D00
3600
0000
3C00
7E00
F700
E300
C300
C380
C380
C380
C380
C380
C380
C380
FFC0
FFC0
ENDCHAR
STARTCHAR 1EAA
ENCODING 7850
SWIDTH 565 0
DWIDTH 11 0
BBX 10 20 1 0
BITMAP
0C00
0F80
0000
3C00
3600
0000
3C00
7E00
F700
E300
C300
C380
C380
C380
C380
C380
C380
C380
FFC0
FFC0
ENDCHAR
STARTCHAR 1EAB
ENCODING 7851
SWIDTH 565 0
DWIDTH 11 0
BBX 10 20 1 0
BITMAP
0C00
0F80
0000
3C00
3600
0000
3C00
7E00
F700
E300
C300
C380
C380
C380
C380
C380
C380
C380
FFC0
FFC0
ENDCHAR
STARTCHAR 1EAC
ENCODING 7852
SWIDTH 565 0
DWIDTH 11 0
BBX 10 22 1 -5
BITMAP
3C00
3600
0000
3C00
7E00
F700
E300
C300
C380
C380
C380
C380
C380
C380
C380
FFC0
FFC0
0000
0000
1800
1C00
1C00
ENDCHAR
STARTCHAR 1EAD
ENCODING 7853
SWIDTH 565 0
DWIDTH 11 0
BBX 10 22 1 -5
BITMAP
3C00
3600
0000
3C00
7E00
F700
E300
C300
C380
C380
C380
C380
C380
C380
C380
FFC0
FFC0
0000
0000
1800
1C00
1C00
ENDCHAR
STARTCHAR 1EAE
ENCODING 7854
SWIDTH 565 0
DWIDTH 11 0
BBX 10 20 1 0
BITMAP
0400
0C00
0800
2600
3C00
0000
3C00
7E00
F700
E300
C300
C380
C380
C380
C380
C380
C380
C380
FFC0
FFC0
ENDCHAR
STARTCHAR 1EAF
ENCODING 7855
SWIDTH 565 0
DWIDTH 11 0
BBX 10 20 1 0
BITMAP
0400
0C00
0800
2600
3C00
0000
3C00
7E00
F700
E300
C300
C380
C380
C380
C380
C380
C380
C380
FFC0
FFC0
ENDCHAR
STARTCHAR 1EB0
ENCODING 7856
SWIDTH 565 0
DWIDTH 11 0
BBX 10 20 1 0
BITMAP
3000
1000
1800
2600
3C00
0000
3C00
7E00
F700
E300
C300
C380
C380
C380
C380
C380
C380
C380
FFC0
FFC0
ENDCHAR
STARTCHAR 1EB1
ENCODING 7857
SWIDTH 565 0
DWIDTH 11 0
BBX 10 20 1 0
BITMAP
3000
1000
1800
2600
3C00
0000
3C00
7E00
F700
E300
C300
C380
C380
C380
C380
C380
C380
C380
FFC0
FFC0
ENDCHAR
STARTCHAR 1EB2
ENCODING 7858
SWIDTH 565 0
DWIDTH 11 0
BBX 10 21 1 0
BITMAP
0800
0800
1800
1800
2600
3C00
0000
3C00
7E00
F700
E300
C300
C380
C380
C380
C380
C380
C380
C380
FFC0
FFC0
ENDCHAR
STARTCHAR 1EB3
ENCODING 7859
SWIDTH 565 0
DWIDTH 11 0
BBX 10 21 1 0
BITMAP
0800
0800
1800
1800
2600
3C00
0000
3C00
7E00
F700
E300
C300
C380
C380
C380
C380
C380
C380
C380
FFC0
FFC0
ENDCHAR
STARTCHAR 1EB4
ENCODING 7860
SWIDTH 565 0
DWIDTH 11 0
BBX 10 20 1 0
BITMAP
3A00
3E00
0000
2600
3C00
0000
3C00
7E00
F700
E300
C300
C380
C380
C380
C380
C380
C380
C380
FFC0
FFC0
ENDCHAR
STARTCHAR 1EB5
ENCODING 7861
SWIDTH 565 0
DWIDTH 11 0
BBX 10 20 1 0
BITMAP
3A00
3E00
0000
2600
3C00
0000
3C00
7E00
F700
E300
C300
C380
C380
C380
C380
C380
C380
C380
FFC0
FFC0
ENDCHAR
STARTCHAR 1EB6
ENCODING 7862
SWIDTH 565 0
DWIDTH 11 0
BBX 10 22 1 -5
BITMAP
2600
3C00
0000
3C00
7E00
F700
E300
C300
C380
C380
C380
C380
C380
C380
C380
FFC0
FFC0
0000
0000
1800
1C00
1C00
ENDCHAR
STARTCHAR 1EB7
ENCODING 7863
SWIDTH 565 0
DWIDTH 11 0
BBX 10 22 1 -5
BITMAP
2600
3C00
0000
3C00
7E00
F700
E300
C300
C380
C380
C380
C380
C380
C380
C380
FFC0
FFC0
0000
0000
1800
1C00
1C00
ENDCHAR
STARTCHAR 1EB8
ENCODING 7864
SWIDTH 462 0
DWIDTH 9 0
BBX 10 19 0 -5
BITMAP
3E00
3E00
3E00
3000
3000
3000
FF00
FF00
3000
3000
3000
3000
3FC0
3FC0
0000
0000
0600
0E00
0600
ENDCHAR
STARTCHAR 1EB9
ENCODING 7865
SWIDTH 462 0
DWIDTH 9 0
BBX 10 19 0 -5
BITMAP
3E00
3E00
3E00
3000
3000
3000
FF00
FF00
3000
3000
3000
3000
3FC0
3FC0
0000
0000
0600
0E00
0600
ENDCHAR
STARTCHAR 1EBA
ENCODING 7866
SWIDTH 462 0
DWIDTH 9 0
BBX 10 18 0 0
BITMAP
0C00
0800
0800
0000
3E00
3E00
3E00
3000
3000
3000
FF00
FF00
3000
3000
3000
3000
3FC0
3FC0
ENDCHAR
STARTCHAR 1EBB
ENCODING 7867
SWIDTH 462 0
DWIDTH 9 0
BBX 10 18 0 0
BITMAP
0C00
0800
0800
0000
3E00
3E00
3E00
3000
3000
3000
FF00
FF00
3000
3000
3000
3000
3FC0
3FC0
ENDCHAR
STARTCHAR 1EBC
ENCODING 7868
SWIDTH 462 0
DWIDTH 9 0
BBX 10 17 0 0
BITMAP
3E00
0400
0000
3E00
3E00
3E00
3000
3000
3000
FF00
FF00
3000
3000
3000
3000
3FC0
3FC0
ENDCHAR
STARTCHAR 1EBD
ENCODING 7869
SWIDTH 462 0
DWIDTH 9 0
BBX 10 17 0 0
BITMAP
3E00
0400
0000
3E00
3E00
3E00
3000
3000
3000
FF00
FF00
3000
3000
3000
3000
3FC0
3FC0
ENDCHAR
STARTCHAR 1EBE
ENCODING 7870
SWIDTH 462 0
DWIDTH 9 0
BBX 10 19 0 0
BITMAP
00C0
0080
1C00
3600
0000
3E00
3E00
3E00
3000
3000
3000
FF00
FF00
3000
3000
3000
3000
3FC0
3FC0
ENDCHAR
STARTCHAR 1EBF
ENCODING 7871
SWIDTH 462 0
DWIDTH 9 0
BBX 10 19 0 0
BITMAP
00C0
0080
1C00
3600
0000
3E00
3E00
3E00
3000
3000
3000
FF00
FF00
3000
3000
3000
3000
3FC0
3FC0
ENDCHAR
STARTCHAR 1EC0
ENCODING 7872
SWIDTH 462 0
DWIDTH 9 0
BBX 11 19 -1 0
BITMAP
C000
4000
0E00
1B00
0000
1F00
1F00
1F00
1800
1800
1800
7F80
7F80
1800
1800
1800
1800
1FE0
1FE0
ENDCHAR
STARTCHAR 1EC1
ENCODING 7873
SWIDTH 462 0
DWIDTH 9 0
BBX 11 19 -1 0
BITMAP
C000
4000
0E00
1B00
0000
1F00
1F00
1F00
1800
1800
1800
7F80
7F80
1800
1800
1800
1800
1FE0
1FE0
ENDCHAR
STARTCHAR 1EC2
ENCODING 7874
SWIDTH 462 0
DWIDTH 9 0
BBX 10 20 0 0
BITMAP
0180
0180
0100
1D80
3600
0000
3E00
3E00
3E00
3000
3000
3000
FF00
FF00
3000
3000
3000
3000
3FC0
3FC0
ENDCHAR
STARTCHAR 1EC3
ENCODING 7875
SWIDTH 462 0
DWIDTH 9 0
BBX 10 20 0 0
BITMAP
0180
0180
0100
1D80
3600
0000
3E00
3E00
3E00
3000
3000
3000
FF00
FF00
3000
3000
3000
3000
3FC0
3FC0
ENDCHAR
STARTCHAR 1EC4
ENCODING 7876
SWIDTH 462 0
DWIDTH 9 0
BBX 10 20 0 0
BITMAP
0600
0F80
0000
1C00
3600
0000
3E00
3E00
3E00
3000
3000
3000
FF00
FF00
3000
3000
3000
3000
3FC0
3FC0
ENDCHAR
STARTCHAR 1EC5
ENCODING 7877
SWIDTH 462 0
DWIDTH 9 0
BBX 10 20 0 0
BITMAP
0600
0F80
0000
1C00
3600
0000
3E00
3E00
3E00
3000
3000
3000
FF00
FF00
3000
3000
3000
3000
3FC0
3FC0
ENDCHAR
STARTCHAR 1EC6
ENCODING 7878
SWIDTH 462 0
DWIDTH 9 0
BBX 10 22 0 -5
BITMAP
1C00
3600
0000
3E00
3E00
3E00
3000
3000
3000
FF00
FF00
3000
3000
3000
3000
3FC0
3FC0
0000
0000
0600
0E00
0600
ENDCHAR
STARTCHAR 1EC7
ENCODING 7879
SWIDTH 462 0
DWIDTH 9 0
BBX 10 22 0 -5
BITMAP
1C00
3600
0000
3E00
3E00
3E00
3000
3000
3000
FF00
FF00
3000
3000
3000
3000
3FC0
3FC0
0000
0000
0600
0E00
0600
ENDCHAR
STARTCHAR 1EC8
ENCODING 7880
SWIDTH 205 0
DWIDTH 4 0
BBX 3 13 1 0
BITMAP
40
40
C0
40
00
E0
E0
E0
E0
E0
E0
E0
E0
ENDCHAR
STARTCHAR 1EC9
ENCODING 7881
SWIDTH 205 0
DWIDTH 4 0
BBX 3 13 1 0
BITMAP
40
40
C0
40
00
E0
E0
E0
E0
E0
E0
E0
E0
ENDCHAR
STARTCHAR 1ECA
ENCODING 7882
SWIDTH 205 0
DWIDTH 4 0
BBX 6 20 -1 -4
BITMAP
10
FC
38
38
40
00
00
30
30
30
30
30
30
30
30
00
00
30
38
38
ENDCHAR
STARTCHAR 1ECB
ENCODING 7883
SWIDTH 205 0
DWIDTH 4 0
BBX 6 20 -1 -4
BITMAP
10
FC
38
38
40
00
00
30
30
30
30
30
30
30
30
00
00
30
38
38
ENDCHAR
STARTCHAR 1ECC
ENCODING 7884
SWIDTH 771 0
DWIDTH 15 0
BBX 14 19 1 -5
BITMAP
0780
1FE0
7CF8
7038
E01C
C00C
C00C
C00C
C00C
E01C
E01C
7878
3FF0
0FC0
0000
0000
0300
0780
0300
ENDCHAR
STARTCHAR 1ECD
ENCODING 7885
SWIDTH 771 0
DWIDTH 15 0
BBX 14 19 1 -5
BITMAP
0780
1FE0
7CF8
7038
E01C
C00C
C00C
C00C
C00C
E01C
E01C
7878
3FF0
0FC0
0000
0000
0300
0780
0300
ENDCHAR
STARTCHAR 1ECE
ENCODING 7886
SWIDTH 771 0
DWIDTH 15 0
BBX 14 18 1 0
BITMAP
0300
0300
0200
0000
0780
1FE0
7CF8
7038
E01C
C00C
C00C
C00C
C00C
E01C
E01C
7878
3FF0
0FC0
ENDCHAR
STARTCHAR 1ECF
ENCODING 7887
SWIDTH 771 0
DWIDTH 15 0
BBX 14 18 1 0
BITMAP
0300
0300
0200
0000
0780
1FE0
7CF8
7038
E01C
C00C
C00C
C00C
C00C
E01C
E01C
7878
3FF0
0FC0
ENDCHAR
STARTCHAR 1ED0
ENCODING 7888
SWIDTH 771 0
DWIDTH 15 0
BBX 14 19 1 0
BITMAP
0030
0020
0780
0CC0
0000
0780
1FE0
7CF8
7038
E01C
C00C
C00C
C00C
C00C
E01C
E01C
7878
3FF0
0FC0
ENDCHAR
STARTCHAR 1ED1
ENCODING 7889
SWIDTH 771 0
DWIDTH 15 0
BBX 14 19 1 0
BITMAP
0030
0020
0780
0CC0
0000
0780
1FE0
7CF8
7038
E01C
C00C
C00C
C00C
C00C
E01C
E01C
7878
3FF0
0FC0
ENDCHAR
STARTCHAR 1ED2
ENCODING 7890
SWIDTH 771 0
DWIDTH 15 0
BBX 14 19 1 0
BITMAP
6000
3000
0780
0CC0
0000
0780
1FE0
7CF8
7038
E01C
C00C
C00C
C00C
C00C
E01C
E01C
7878
3FF0
0FC0
ENDCHAR
STARTCHAR 1ED3
ENCODING 7891
SWIDTH 771 0
DWIDTH 15 0
BBX 14 19 1 0
BITMAP
6000
3000
0780
0CC0
0000
0780
1FE0
7CF8
7038
E01C
C00C
C00C
C00C
C00C
E01C
E01C
7878
3FF0
0FC0
ENDCHAR
STARTCHAR 1ED4
ENCODING 7892
SWIDTH 771 0
DWIDTH 15 0
BBX 14 20 1 0
BITMAP
0020
0020
0060
07A0
0CC0
0000
0780
1FE0
7CF8
7038
E01C
C00C
C00C
C00C
C00C
E01C
E01C
7878
3FF0
0FC0
ENDCHAR
STARTCHAR 1ED5
ENCODING 7893
SWIDTH 771 0
DWIDTH 15 0
BBX 14 20 1 0
BITMAP
0020
0020
0060
07A0
0CC0
0000
0780
1FE0
7CF8
7038
E01C
C00C
C00C
C00C
C00C
E01C
E01C
7878
3FF0
0FC0
ENDCHAR
STARTCHAR 1ED6
ENCODING 7894
SWIDTH 771 0
DWIDTH 15 0
BBX 14 20 1 0
BITMAP
0180
01E0
0000
0780
0CC0
0000
0780
1FE0
7CF8
7038
E01C
C00C
C00C
C00C
C00C
E01C
E01C
7878
3FF0
0FC0
ENDCHAR
STARTCHAR 1ED7
ENCODING 7895
SWIDTH 771 0
DWIDTH 15 0
BBX 14 20 1 0
BITMAP
0180
01E0
0000
0780
0CC0
0000
0780
1FE0
7CF8
7038
E01C
C00C
C00C
C00C
C00C
E01C
E01C
7878
3FF0
0FC0
ENDCHAR
STARTCHAR 1ED8
ENCODING 7896
SWIDTH 771 0
DWIDTH 15 0
BBX 14 22 1 -5
BITMAP
0780
0CC0
0000
0780
1FE0
7CF8
7038
E01C
C00C
C00C
C00C
C00C
E01C
E01C
7878
3FF0
0FC0
0000
0000
0300
0780
0300
ENDCHAR
STARTCHAR 1ED9
ENCODING 7897
SWIDTH 771 0
DWIDTH 15 0
BBX 14 22 1 -5
BITMAP
0780
0CC0
0000
0780
1FE0
7CF8
7038
E01C
C00C
C00C
C00C
C00C
E01C
E01C
7878
3FF0
0FC0
0000
0000
0300
0780
0300
ENDCHAR
STARTCHAR 1EDA
ENCODING 7898
SWIDTH 771 0
DWIDTH 15 0
BBX 14 17 1 0
BITMAP
0180
0300
0008
07D8
1FE0
7CF8
7038
E01C
C00C
C00C
C00C
C00C
E01C
E01C
7878
3FF0
0FC0
ENDCHAR
STARTCHAR 1EDB
ENCODING 7899
SWIDTH 771 0
DWIDTH 15 0
BBX 14 17 1 0
BITMAP
0180
0300
0008
07D8
1FE0
7CF8
7038
E01C
C00C
C00C
C00C
C00C
E01C
E01C
7878
3FF0
0FC0
ENDCHAR
STARTCHAR 1EDC
ENCODING 7900
SWIDTH 771 0
DWIDTH 15 0
BBX 14 17 1 0
BITMAP
0600
0300
0008
07D8
1FE0
7CF8
7038
E01C
C00C
C00C
C00C
C00C
E01C
E01C
7878
3FF0
0FC0
ENDCHAR
STARTCHAR 1EDD
ENCODING 7901
SWIDTH 771 0
DWIDTH 15 0
BBX 14 17 1 0
BITMAP
0600
0300
0008
07D8
1FE0
7CF8
7038
E01C
C00C
C00C
C00C
C00C
E01C
E01C
7878
3FF0
0FC0
ENDCHAR
STARTCHAR 1EDE
ENCODING 7902
SWIDTH 771 0
DWIDTH 15 0
BBX 14 18 1 0
BITMAP
0300
0300
0200
0008
07D8
1FE0
7CF8
7038
E01C
C00C
C00C
C00C
C00C
E01C
E01C
7878
3FF0
0FC0
ENDCHAR
STARTCHAR 1EDF
ENCODING 7903
SWIDTH 771 0
DWIDTH 15 0
BBX 14 18 1 0
BITMAP
0300
0300
0200
0008
07D8
1FE0
7CF8
7038
E01C
C00C
C00C
C00C
C00C
E01C
E01C
7878
3FF0
0FC0
ENDCHAR
STARTCHAR 1EE0
ENCODING 7904
SWIDTH 771 0
DWIDTH 15 0
BBX 14 17 1 0
BITMAP
0F80
0180
0008
07D8
1FE0
7CF8
7038
E01C
C00C
C00C
C00C
C00C
E01C
E01C
7878
3FF0
0FC0
ENDCHAR
STARTCHAR 1EE1
ENCODING 7905
SWIDTH 771 0
DWIDTH 15 0
BBX 14 17 1 0
BITMAP
0F80
0180
0008
07D8
1FE0
7CF8
7038
E01C
C00C
C00C
C00C
C00C
E01C
E01C
7878
3FF0
0FC0
ENDCHAR
STARTCHAR 1EE2
ENCODING 7906
SWIDTH 771 0
DWIDTH 15 0
BBX 14 20 1 -5
BITMAP
0008
07D8
1FE0
7CF8
7038
E01C
C00C
C00C
C00C
C00C
E01C
E01C
7878
3FF0
0FC0
0000
0000
0300
0780
0300
ENDCHAR
STARTCHAR 1EE3
ENCODING 7907
SWIDTH 771 0
DWIDTH 15 0
BBX 14 20 1 -5
BITMAP
0008
07D8
1FE0
7CF8
7038
E01C
C00C
C00C
C00C
C00C
E01C
E01C
7878
3FF0
0FC0
0000
0000
0300
0780
0300
ENDCHAR
STARTCHAR 1EE4
ENCODING 7908
SWIDTH 514 0
DWIDTH 10 0
BBX 8 19 1 -5
BITMAP
C3
C3
C3
C3
C3
C3
C3
C3
C3
C3
C3
E7
7F
3E
00
00
18
1C
1C
ENDCHAR
STARTCHAR 1EE5
ENCODING 7909
SWIDTH 514 0
DWIDTH 10 0
BBX 8 19 1 -5
BITMAP
C3
C3
C3
C3
C3
C3
C3
C3
C3
C3
C3
E7
7F
3E
00
00
18
1C
1C
ENDCHAR
STARTCHAR 1EE6
ENCODING 7910
SWIDTH 514 0
DWIDTH 10 0
BBX 8 18 1 0
BITMAP
08
18
18
00
C3
C3
C3
C3
C3
C3
C3
C3
C3
C3
C3
E7
7F
3E
ENDCHAR
STARTCHAR 1EE7
ENCODING 7911
SWIDTH 514 0
DWIDTH 10 0
BBX 8 18 1 0
BITMAP
08
18
18
00
C3
C3
C3
C3
C3
C3
C3
C3
C3
C3
C3
E7
7F
3E
ENDCHAR
STARTCHAR 1EE8
ENCODING 7912
SWIDTH 514 0
DWIDTH 10 0
BBX 10 17 1 0
BITMAP
0C00
0800
00C0
C3C0
C300
C300
C300
C300
C300
C300
C300
C300
C300
C300
E700
7F00
3E00
ENDCHAR
STARTCHAR 1EE9
ENCODING 7913
SWIDTH 514 0
DWIDTH 10 0
BBX 10 17 1 0
BITMAP
0C00
0800
00C0
C3C0
C300
C300
C300
C300
C300
C300
C300
C300
C300
C300
E700
7F00
3E00
ENDCHAR
STARTCHAR 1EEA
ENCODING 7914
SWIDTH 514 0
DWIDTH 10 0
BBX 10 17 1 0
BITMAP
3000
1800
00C0
C3C0
C300
C300
C300
C300
C300
C300
C300
C300
C300
C300
E700
7F00
3E00
ENDCHAR
STARTCHAR 1EEB
ENCODING 7915
SWIDTH 514 0
DWIDTH 10 0
BBX 10 17 1 0
BITMAP
3000
1800
00C0
C3C0
C300
C300
C300
C300
C300
C300
C300
C300
C300
C300
E700
7F00
3E00
ENDCHAR
STARTCHAR 1EEC
ENCODING 7916
SWIDTH 514 0
DWIDTH 10 0
BBX 10 18 1 0
BITMAP
0800
1800
1800
00C0
C3C0
C300
C300
C300
C300
C300
C300
C300
C300
C300
C300
E700
7F00
3E00
ENDCHAR
STARTCHAR 1EED
ENCODING 7917
SWIDTH 514 0
DWIDTH 10 0
BBX 10 18 1 0
BITMAP
0800
1800
1800
00C0
C3C0
C300
C300
C300
C300
C300
C300
C300
C300
C300
C300
E700
7F00
3E00
ENDCHAR
STARTCHAR 1EEE
ENCODING 7918
SWIDTH 514 0
DWIDTH 10 0
BBX 10 17 1 0
BITMAP
3C00
0C00
00C0
C3C0
C300
C300
C300
C300
C300
C300
C300
C300
C300
C300
E700
7F00
3E00
ENDCHAR
STARTCHAR 1EEF
ENCODING 7919
SWIDTH 514 0
DWIDTH 10 0
BBX 10 17 1 0
BITMAP
3C00
0C00
00C0
C3C0
C300
C300
C300
C300
C300
C300
C300
C300
C300
C300
E700
7F00
3E00
ENDCHAR
STARTCHAR 1EF0
ENCODING 7920
SWIDTH 514 0
DWIDTH 10 0
BBX 10 20 1 -5
BITMAP
00C0
C3C0
C300
C300
C300
C300
C300
C300
C300
C300
C300
C300
E700
7F00
3E00
0000
0000
1800
1C00
1C00
ENDCHAR
STARTCHAR 1EF1
ENCODING 7921
SWIDTH 514 0
DWIDTH 10 0
BBX 10 20 1 -5
BITMAP
00C0
C3C0
C300
C300
C300
C300
C300
C300
C300
C300
C300
C300
E700
7F00
3E00
0000
0000
1800
1C00
1C00
ENDCHAR
STARTCHAR 1EF2
ENCODING 7922
SWIDTH 514 0
DWIDTH 10 0
BBX 8 17 1 0
BITMAP
30
18
00
C3
C3
C3
C3
C3
C3
C3
C3
E7
7E
3C
18
18
18
ENDCHAR
STARTCHAR 1EF3
ENCODING 7923
SWIDTH 514 0
DWIDTH 10 0
BBX 8 17 1 0
BITMAP
30
18
00
C3
C3
C3
C3
C3
C3
C3
C3
E7
7E
3C
18
18
18
ENDCHAR
STARTCHAR 1EF4
ENCODING 7924
SWIDTH 514 0
DWIDTH 10 0
BBX 8 19 1 -5
BITMAP
C3
C3
C3
C3
C3
C3
C3
C3
E7
7E
3C
18
18
18
00
00
18
1C
18
ENDCHAR
STARTCHAR 1EF5
ENCODING 7925
SWIDTH 514 0
DWIDTH 10 0
BBX 8 19 1 -5
BITMAP
C3
C3
C3
C3
C3
C3
C3
C3
E7
7E
3C
18
18
18
00
00
18
1C
18
ENDCHAR
STARTCHAR 1EF6
ENCODING 7926
SWIDTH 514 0
DWIDTH 10 0
BBX 8 18 1 0
BITMAP
18
18
18
00
C3
C3
C3
C3
C3
C3
C3
C3
E7
7E
3C
18
18
18
ENDCHAR
STARTCHAR 1EF7
ENCODING 7927
SWIDTH 514 0
DWIDTH 10 0
BBX 8 18 1 0
BITMAP
18
18
18
00
C3
C3
C3
C3
C3
C3
C3
C3
E7
7E
3C
18
18
18
ENDCHAR
STARTCHAR 1EF8
ENCODING 7928
SWIDTH 514 0
DWIDTH 10 0
BBX 8 17 1 0
BITMAP
7C
0C
00
C3
C3
C3
C3
C3
C3
C3
C3
E7
7E
3C
18
18
18
ENDCHAR
STARTCHAR 1EF9
ENCODING 7929
SWIDTH 514 0
DWIDTH 10 0
BBX 8 17 1 0
BITMAP
7C
0C
00
C3
C3
C3
C3
C3
C3
C3
C3
E7
7E
3C
18
18
18
ENDCHAR
STARTCHAR 2013
ENCODING 8211
SWIDTH 565 0
DWIDTH 11 0
BBX 9 2 1 4
BITMAP
FF80
FF80
ENDCHAR
STARTCHAR 2014
ENCODING 8212
SWIDTH 822 0
DWIDTH 16 0
BBX 14 2 1 4
BITMAP
FFFC
FFFC
ENDCHAR
STARTCHAR 2018
ENCODING 8216
SWIDTH 205 0
DWIDTH 4 0
BBX 3 4 1 10
BITMAP
60
60
40
C0
ENDCHAR
STARTCHAR 2019
ENCODING 8217
SWIDTH 205 0
DWIDTH 4 0
BBX 3 4 1 10
BITMAP
60
40
C0
C0
ENDCHAR
STARTCHAR 201A
ENCODING 8218
SWIDTH 205 0
DWIDTH 4 0
BBX 3 3 1 -2
BITMAP
60
C0
C0
ENDCHAR
STARTCHAR 201C
ENCODING 8220
SWIDTH 411 0
DWIDTH 8 0
BBX 6 4 1 10
BITMAP
24
64
6C
CC
ENDCHAR
STARTCHAR 201D
ENCODING 8221
SWIDTH 411 0
DWIDTH 8 0
BBX 6 4 1 10
BITMAP
6C
4C
C8
C8
ENDCHAR
STARTCHAR 201E
ENCODING 8222
SWIDTH 411 0
DWIDTH 8 0
BBX 6 3 1 -2
BITMAP
6C
CC
CC
ENDCHAR
STARTCHAR 2020
ENCODING 8224
SWIDTH 411 0
DWIDTH 8 0
BBX 6 10 1 4
BITMAP
30
30
FC
30
30
30
30
30
30
30
ENDCHAR
STARTCHAR 2021
ENCODING 8225
SWIDTH 411 0
DWIDTH 8 0
BBX 6 10 1 4
BITMAP
30
30
FC
30
30
30
FC
FC
30
30
ENDCHAR
STARTCHAR 2022
ENCODING 8226
SWIDTH 308 0
DWIDTH 6 0
BBX 4 5 1 3
BITMAP
60
F0
F0
F0
60
ENDCHAR
STARTCHAR 2026
ENCODING 8230
SWIDTH 668 0
DWIDTH 13 0
BBX 12 3 1 0
BITMAP
6660
EF70
E670
ENDCHAR
STARTCHAR 2030
ENCODING 8240
SWIDTH 1337 0
DWIDTH 26 0
BBX 24 14 1 0
BITMAP
380C00
7C1800
C63000
C62000
C66000
7CC000
398000
018000
033E3E
067777
066363
0C6363
187E7F
103E3E
ENDCHAR
STARTCHAR 2039
ENCODING 8249
SWIDTH 360 0
DWIDTH 7 0
BBX 5 8 1 2
BITMAP
18
30
60
60
E0
60
30
18
ENDCHAR
STARTCHAR 203A
ENCODING 8250
SWIDTH 360 0
DWIDTH 7 0
BBX 4 8 2 2
BITMAP
C0
E0
60
30
30
60
60
C0
ENDCHAR
STARTCHAR 2044
ENCODING 8260
SWIDTH 668 0
DWIDTH 13 0
BBX 11 14 1 0
BITMAP
0060
0060
00C0
0180
0180
0300
0600
0400
0C00
1800
3000
3000
6000
C000
ENDCHAR
STARTCHAR 20AC
ENCODING 8364
SWIDTH 617 0
DWIDTH 12 0
BBX 11 14 1 0
BITMAP
01E0
07E0
0F60
1C00
3800
FF80
FF80
3000
FF80
3800
1800
1E00
0FE0
03E0
ENDCHAR
STARTCHAR 2122
ENCODING 8482
SWIDTH 822 0
DWIDTH 16 0
BBX 14 8 1 6
BITMAP
FC4C
FE6C
27FC
27EC
266C
266C
266C
266C
ENDCHAR
STARTCHAR 2190
ENCODING 8592
SWIDTH 822 0
DWIDTH 16 0
BBX 13 8 2 3
BITMAP
1800
3000
6000
FFF8
FFF8
6000
3000
1800
ENDCHAR
STARTCHAR 2191
ENCODING 8593
SWIDTH 617 0
DWIDTH 12 0
BBX 10 14 1 0
BITMAP
0C00
1E00
3F00
7F80
EDC0
4C80
0C00
0C00
0C00
0C00
0C00
0C00
0C00
0C00
ENDCHAR
STARTCHAR 2192
ENCODING 8594
SWIDTH 822 0
DWIDTH 16 0
BBX 14 10 1 2
BITMAP
0040
00E0
0070
0038
FFFC
FFFC
0038
0070
00E0
0040
ENDCHAR
STARTCHAR 2193
ENCODING 8595
SWIDTH 617 0
DWIDTH 12 0
BBX 10 14 1 0
BITMAP
0C00
0C00
0C00
0C00
0C00
0C00
0C00
0C00
4C80
EDC0
7F80
3F00
1E00
0C00
ENDCHAR
STARTCHAR 2194
ENCODING 8596
SWIDTH 925 0
DWIDTH 18 0
BBX 14 8 2 3
BITMAP
1860
3030
6018
FFFC
FFFC
6018
3030
1860
ENDCHAR
STARTCHAR 2195
ENCODING 8597
SWIDTH 668 0
DWIDTH 13 0
BBX 11 14 1 0
BITMAP
0400
0E00
3F80
77C0
E6E0
0600
0600
0600
0600
4660
66E0
3F80
1F00
0E00
ENDCHAR
STARTCHAR 2196
ENCODING 8598
SWIDTH 617 0
DWIDTH 12 0
BBX 10 10 1 1
BITMAP
FE00
FE00
F000
F800
DC00
CE00
C700
0380
01C0
00C0
ENDCHAR
STARTCHAR 2197
ENCODING 8599
SWIDTH 617 0
DWIDTH 12 0
BBX 11 11 1 1
BITMAP
0FE0
0FE0
01E0
03E0
0760
0E60
1C60
3800
7000
E000
4000
ENDCHAR
STARTCHAR 2198
ENCODING 8600
SWIDTH 617 0
DWIDTH 12 0
BBX 11 11 1 1
BITMAP
4000
E000
7000
3800
1C60
0E60
0760
03E0
01E0
0FE0
0FE0
ENDCHAR
STARTCHAR 2199
ENCODING 8601
SWIDTH 617 0
DWIDTH 12 0
BBX 11 11 1 1
BITMAP
0040
00E0
01C0
0380
C700
CE00
DC00
F800
F000
FE00
FE00
ENDCHAR
STARTCHAR 2202
ENCODING 8706
SWIDTH 565 0
DWIDTH 11 0
BBX 10 14 1 1
BITMAP
1800
3E00
0F00
0700
0380
1D80
7F80
7FC0
E1C0
E180
E180
E380
7F00
3E00
ENDCHAR
STARTCHAR 2205
ENCODING 8709
SWIDTH 720 0
DWIDTH 14 0
BBX 12 12 1 1
BITMAP
0F10
39F0
6060
40F0
C190
C310
C610
CC10
5830
7060
79C0
CF00
ENDCHAR
STARTCHAR 220F
ENCODING 8719
SWIDTH 617 0
DWIDTH 12 0
BBX 10 16 1 -2
BITMAP
FFC0
FFC0
6180
6180
6180
6180
6180
6180
6180
6180
6180
6180
6180
6180
6180
6180
ENDCHAR
STARTCHAR 2211
ENCODING 8721
SWIDTH 462 0
DWIDTH 9 0
BBX 8 16 1 -2
BITMAP
FF
FF
E0
60
30
38
18
1C
1C
18
30
30
60
E0
FF
FF
ENDCHAR
STARTCHAR 2212
ENCODING 8722
SWIDTH 565 0
DWIDTH 11 0
BBX 9 2 1 5
BITMAP
FF80
FF80
ENDCHAR
STARTCHAR 221A
ENCODING 8730
SWIDTH 668 0
DWIDTH 13 0
BBX 12 16 1 -2
BITMAP
01F0
01F0
0180
0180
0300
0300
0300
0700
C600
6600
6600
6C00
3C00
3C00
3C00
1800
ENDCHAR
STARTCHAR 221E
ENCODING 8734
SWIDTH 822 0
DWIDTH 16 0
BBX 14 6 1 4
BITMAP
7C78
EFCC
C384
C304
C7CC
7CF8
ENDCHAR
STARTCHAR 222B
ENCODING 8747
SWIDTH 514 0
DWIDTH 10 0
BBX 8 16 1 -2
BITMAP
07
0F
0C
0C
0C
0C
18
18
18
18
18
38
30
30
70
E0
ENDCHAR
STARTCHAR 2248
ENCODING 8776
SWIDTH 514 0
DWIDTH 10 0
BBX 9 7 1 3
BITMAP
6000
FF80
0F80
0000
6000
FF80
0F80
ENDCHAR
STARTCHAR 2260
ENCODING 8800
SWIDTH 565 0
DWIDTH 11 0
BBX 9 10 1 1
BITMAP
0600
0C00
FF80
FF80
1800
1800
FF80
FF80
3000
2000
ENDCHAR
STARTCHAR 2264
ENCODING 8804
SWIDTH 565 0
DWIDTH 11 0
BBX 9 8 1 2
BITMAP
0780
7F00
E000
FE00
0F80
0080
0000
FF80
ENDCHAR
STARTCHAR 2265
ENCODING 8805
SWIDTH 565 0
DWIDTH 11 0
BBX 9 8 1 2
BITMAP
F000
7F00
0380
3F80
F800
8000
0000
FF80
ENDCHAR
STARTCHAR 25CA
ENCODING 9674
SWIDTH 514 0
DWIDTH 10 0
BBX 8 12 1 1
BITMAP
18
3C
3C
66
66
C3
C3
66
66
3C
3C
18
ENDCHAR
ENDFONT
